<?xml version="1.0" encoding="UTF-8" standalone="no"?><svg xmlns="http://www.w3.org/2000/svg" xmlns:xlink="http://www.w3.org/1999/xlink" fill="#000000" height="505.6" preserveAspectRatio="xMidYMid meet" version="1.1" viewBox="-12.4 -5.6 735.2 505.6" width="735.2" zoomAndPan="magnify">
 <defs>
  <clipPath id="clip1">
   <path d="m22 14h699.82v486.05h-699.82z"/>
  </clipPath>
 </defs>
 <g id="surface1">
  <g id="change1_1"><path d="m217.8 33.852c4.5-8.903 13.7-15 24.4-15h210.5c15.1 0 27.4 12.296 27.4 27.398v55.3c29.7-9.402 59.6-16.499 102.7-5.198 17.8 4.698 61.1 15.998 91.1 53.698 48.9 61.5 34.5 157.7-2.4 217-57.9 93.2-172.9 107-225.4 113.3-110.6 13.3-201.3-22.9-256.4-54l-4.3-0.9h-75.1v-5.8l-4.3-8.7 32.5-18.5c-2-1.6-3.5-2.8-4.7-3.7-40.499-33.2-146.2-119.8-132.6-233.9 7.6984-64.1 56.3-140.3 121.8-153.1 37.5-7.3008 66 9.199 94.8 32.102" fill="#f2cdf1"/></g>
  <g id="change2_1"><path d="m274.4 296.85c-5.3 0-9.6 4.3-9.6 9.6s4.3 9.6 9.6 9.6 9.6-4.3 9.6-9.6-4.3-9.6-9.6-9.6zm-26.7-235.3c-5.3 0-9.6 4.301-9.6 9.597 0 5.301 4.3 9.602 9.6 9.602s9.6-4.301 9.6-9.602c0-5.296-4.3-9.597-9.6-9.597zm-0.2 306.9c-5.3 0-9.6 4.3-9.6 9.6s4.3 9.6 9.6 9.6 9.6-4.3 9.6-9.6-4.3-9.6-9.6-9.6zm0-71.6c-5.3 0-9.6 4.3-9.6 9.6s4.3 9.6 9.6 9.6 9.6-4.3 9.6-9.6-4.3-9.6-9.6-9.6zm169.6-135.3l-3.6 1.8c-2.3 1.2-5.1 0.3-6.2-2l-11.3-21.8c-1.4 0.6-2.8 1.3-4.1 1.9-3-3.7-7.7-10.6-10.3-20.4-2-7.7-1.8-14.4-1.4-18.8 3.9-1.6 7.8-3.102 11.8-4.801 8.3-3.398 11.7-5 13.6-3.398 0.6 0.5 0.9 1.097 1 1.5-1 0.398-2 0.801-3 1.097-0.1 3.402 0.1 7.602 1.1 12.202 1.9 9.6 6 16.7 9.1 21 0.1 0 0.7 0.4 0.8 1.1s-0.4 1.4-1.1 1.6c-1.7 0.5-3.4 1.1-5.1 1.7 3.6 6.9 7.2 13.8 10.8 20.7 1 2.6 0.2 5.4-2.1 6.6zm163.6 125c-2.6 3.8-7 9.2-14.2 14.5l-4.8-4.2c-0.3-0.2-0.5-0.4-0.8-0.7l0.8-1.1 8.8-13.2-12.3-9.7 1.2 4.1h-39.9v19.6l-0.6 0.3c-0.9 0.1-5.8 0.8-10.3-2.5-0.4-0.3-4.6-3.5-5.3-8.9-0.3-2.5 0-6 7.1-15.6 3-4.1 7.4-9.5 13.5-15.3 3.6-0.8 7.2-1.6 10.8-2.3 0.7 2.4 2.9 4.1 5.3 4 2.3-0.1 4.4-1.7 5-4l11.5 1.3c8.6 6.8 15.4 12 21.5 16.5 2.1 1.6 5.4 4 6 7.8 0.5 2.5-0.3 5-3.3 9.4" fill="#53c289"/></g>
  <g id="change2_2"><path d="m161.9 75.648h-37.7c-4.9 0-9 4-9 9v25.702c0 4.9 4 9 9 9h10.7l8.2 12.6 7.5-12.6h11.4c4.9 0 9-4 9-9v-25.799c-0.2-4.903-4.2-8.903-9.1-8.903zm414.2 62.002v27.4c0 5.2-4.3 9.5-9.5 9.5h-12.1l-8 13.4-8.7-13.4h-11.4c-5.2 0-9.5-4.3-9.5-9.5v-27.4c0-5.2 4.3-9.5 9.5-9.5h40.1c5.3 0 9.6 4.3 9.6 9.5" fill="#53c289"/></g>
  <g id="change3_1"><path d="m419.1 158.25c0.1-1.1-0.3-2-0.6-2.6-0.2-0.3-0.1-0.6 0.1-0.8 0.8-0.9 0.9-2.1 0.4-3.1-0.5-0.9-1.6-1.5-2.7-1.3-0.3 0-0.6-0.1-0.7-0.4s0-0.6 0.3-0.8c0.9-0.6 1.2-1.8 0.7-2.7-0.5-0.8-1.6-1.2-2.5-0.9-0.4 0.1-0.8 0-0.9-0.4s0-0.8 0.4-0.9c1.6-0.6 3.4 0 4.2 1.5 0.6 1.1 0.6 2.3 0 3.3 1 0.3 2 0.9 2.5 1.9 0.8 1.4 0.7 3.1-0.2 4.4 0.4 0.8 0.7 1.9 0.6 3.1-0.3 2.3-2.4 4.3-5.1 5-0.1 18-1.6 36-4.3 53.3-2.9 18.5-5.3 25-10 26.6-0.8 0.3-1.6 0.4-2.5 0.4-10.6 0-24.4-20.2-26.1-22.7-0.2-0.3-0.1-0.8 0.2-1s0.7-0.1 1 0.2c0.7 1 17 25.2 26.9 21.7 3.5-1.2 6-5.6 9-25.5 2.7-17.5 4.1-35.5 4.2-53.7v-0.2s0-0.1 0.1-0.1c0 0 0-0.1 0.1-0.1l0.1-0.1 0.1-0.1h0.1 0.1c2.4-0.5 4.2-2.1 4.5-4zm-29.1 40.2l4.1 6.5 4.3-40.6c-1.1-2.7-2.7-7.8-0.7-13.1 1.7-4.6 5.7-8.3 7.8-8.9 0.5-0.2 1-0.1 1.3 0.1 0.8 0.5 1.1 1.7-2.8 9.1-0.2 0.3-0.6 0.5-0.9 0.3s-0.5-0.6-0.3-0.9c2.8-5.3 3.1-6.9 3.1-7.4-1 0.2-5.1 3.5-6.9 8.2-1.8 5-0.3 9.8 0.7 12.2 0 0.1 0.1 0.2 0.1 0.4l-4.5 42.8c0 0.3-0.2 0.5-0.5 0.6h-0.2c-0.2 0-0.5-0.1-0.6-0.3l-5.2-8.1c-0.2-0.3-0.1-0.8 0.2-1 0.4-0.4 0.8-0.3 1 0.1zm153.8 91.8c0 1.9-1.5 3.4-3.4 3.4s-3.4-1.5-3.4-3.4 1.5-3.4 3.4-3.4 3.4 1.5 3.4 3.4zm21.5 123.9s0.1 0 0 0c0.1 0 0.1 0 0 0h1.2 1.6 0.2 0.5v8.6h-8.9v-9.1c1.6 0.3 3.4 0.5 5.4 0.5zm-23.1-5.3c-2.1-0.3-4.2-0.4-6.3-0.4h-0.9c-0.3 0-0.7 0-1 0.1h-0.7c-0.8 0-1.5 0.1-2.3 0.2-0.3 0-0.6 0.1-0.9 0.1s-0.5 0.1-0.8 0.1h-0.1c-3.5 0.5-7.1 1.4-10.8 2.6 1.5-16.8 2.5-33.7 3.1-50.5 0.6-18.1 0.7-36.5 0.3-54.6h32.3c-0.6 1-0.9 2-0.5 2.7 0.2 0.3 0.6 0.7 1.5 0.9 0.2 0 0.5 0.1 0.8 0.1 1.6 0 3.9-0.7 5.8-1.9 3.5 15.9 6.4 32 8.6 48.1 2.5 18.5 4.2 37.4 5 56.2-2.1 0.3-4.2 0.4-6.3 0.4-1.1 0-2.3 0-3.4-0.1h-0.2c-2-0.1-4.1-0.3-6.1-0.6h-0.3c-3.4-0.5-6.4-1.2-9.2-1.8-2.6-0.7-5-1.2-7.6-1.6zm-9 1s0.1 0 0 0c0.8 0 1.5-0.1 2.3-0.1 1 0 1.9 0 2.9 0.1v13h-8.3v-12.7c1-0.1 2.1-0.2 3.1-0.3zm-13.3-132.6h40.9v19.9c-5.4 2.1-6.4 3.2-6.2 4.3 0.1 0.8 0.9 1.2 2.5 1.5l-0.3 0.3h-36.8zm61.2 150.1c-1-1.4-2.7-1.5-4.3-1.7-1.8-0.2-4.1-0.7-7-1.7 0.1-0.1 0.2-0.3 0.2-0.5v-9.4c2-0.1 4-0.2 5.9-0.5 0.4 0 0.6-0.4 0.6-0.7-0.8-19-2.4-38.1-5-56.9-2.2-16.3-5.2-32.8-8.8-48.9 2.3-2.2 3-5 3.2-6.6 0-0.4-0.2-0.7-0.6-0.8s-0.7 0.2-0.8 0.6c-0.2 1.4-0.8 4.1-3 6-1.9 1.7-4.8 2.5-6.4 2.2-0.4-0.1-0.5-0.2-0.6-0.2-0.3-0.4 1.1-2.6 4.3-5.5 0.2-0.2 0.3-0.5 0.2-0.7-0.1-0.3-0.3-0.4-0.6-0.5-1.9-0.2-2.5-0.5-2.7-0.6 0.2-0.3 1.2-1.2 6.2-3.1 0.4-0.1 0.5-0.5 0.4-0.9-0.1-0.2-0.2-0.3-0.3-0.4v-20.3c0-0.4-0.3-0.7-0.7-0.7h-42.3c-0.4 0-0.7 0.3-0.7 0.7v27.4c0 0.4 0.3 0.7 0.7 0.7v1.8h1.1c0.4 18.1 0.3 36.4-0.3 54.5-0.6 17.1-1.7 34.4-3.2 51.5 0 0.2 0.1 0.5 0.3 0.6s0.4 0.2 0.7 0.1c3.7-1.3 7.3-2.2 10.9-2.8v13.1 0.2c-2.8 0.9-5 1.3-6.6 1.5-2.1 0.2-3.8 0.2-5 1.5-0.9 0.9-1.1 2.2-1.2 3h23.7v-5.3c0.1-0.1 0.2-0.3 0.2-0.5v-13.6c0.7 0.1 1.5 0.1 2.2 0.2 2.5 0.4 4.9 0.9 7.4 1.5 2.7 0.6 5.6 1.3 9 1.8v10c0 0.2 0.1 0.4 0.3 0.5v5.6l23.1 0.8c0.3-0.7 0.2-2-0.5-3zm-51.7-190.4c-0.8-2.8-0.9-5.9-0.3-8.8 0-0.2 0.2-0.4 0.4-0.5 2-0.7 3.9-1.8 5.6-3.1 2-1.6 3.7-3.5 5-5.8 0.1-0.2 0.3-0.3 0.6-0.3 0.2 0 0.5 0.1 0.6 0.3 1.3 1.6 2.7 3.2 4.2 4.6 1.8 1.7 3.8 3.2 5.9 4.5 0.2 0.1 0.3 0.3 0.3 0.5 0.4 3 0.4 7.5-1.7 12.3-1 2.3-2.5 4.4-4.2 6.2v5.1c0 0.4-0.3 0.7-0.7 0.7s-0.7-0.3-0.7-0.7v-5.3c0-0.2 0.1-0.4 0.2-0.5 1.8-1.8 3.2-3.8 4.2-6 2-4.3 2-8.4 1.7-11.2-2.1-1.3-4-2.8-5.8-4.5-1.3-1.2-2.6-2.6-3.8-3.9-1.3 2-2.9 3.8-4.9 5.3-1.7 1.3-3.6 2.4-5.6 3.2-0.4 2.6-0.3 5.3 0.4 7.8 1 3.8 3 6.5 4.5 8 0.1 0.1 0.2 0.3 0.2 0.5v6.7c0 0.4-0.3 0.7-0.7 0.7s-0.7-0.3-0.7-0.7v-6.4c-1.6-2-3.7-4.8-4.7-8.7zm-377.4-138.9c0-1.801 1.5-3.301 3.3-3.301s3.3 1.5 3.3 3.301-1.5 3.299-3.3 3.299-3.3-1.401-3.3-3.299zm-11.9 0c0-1.801 1.5-3.301 3.3-3.301s3.3 1.5 3.3 3.301-1.5 3.299-3.3 3.299-3.3-1.401-3.3-3.299zm-12 0c0-1.801 1.5-3.301 3.3-3.301s3.3 1.5 3.3 3.301-1.5 3.299-3.3 3.299-3.3-1.401-3.3-3.299zm116.9-37.403c4.9 0 8.9 4 8.9 8.903 0 4.898-4 8.898-8.9 8.898s-8.9-4-8.9-8.898c-0.1-4.903 3.9-8.903 8.9-8.903zm0 19.301c5.7 0 10.3-4.597 10.3-10.301 0-5.699-4.6-10.296-10.3-10.296s-10.3 4.597-10.3 10.296c0 5.704 4.6 10.301 10.3 10.301zm-41.4 319.9l-17-0.6-0.5-7.3 15.4 7.8c0.2 0.1 0.5 0.1 0.7 0l1.5-0.9zm-91.5 25h-1.2v-2.2l0.9 1.9c0.1 0.2 0.2 0.3 0.3 0.3zm40.1-15.8l30.3 15.8h-69.6zm52.1-7.8c0.4 0 0.7-0.3 0.7-0.6l0.2-3.2c0-0.3-0.1-0.5-0.3-0.6s-0.5-0.1-0.7 0l-2.3 1.5-16.2-8.2c-0.2-0.1-0.5-0.1-0.7 0s-0.3 0.4-0.3 0.6l0.6 8.1c-2.6-1-7.8-3-14.4-5.5l-0.9-0.3c-11.4-4.4-14.2-5.4-18.3-5.4h-0.1c-5.7 0-9.6 2-17.8 6.6-9.5 5.2-19 10.7-28.3 16.3-0.3 0.2-0.4 0.6-0.3 0.9l4.2 8.5v5.7c0 0.4 0.3 0.7 0.7 0.7h75.1l19.1 3.8h0.1c0.3 0 0.6-0.2 0.7-0.6s-0.2-0.7-0.5-0.8l-19.1-3.8-33-17.2c-0.2-0.1-0.4-0.1-0.6 0l-39.2 15.8-5.9-12.1c9.1-5.4 18.4-10.8 27.7-15.9 8-4.4 11.8-6.4 17.1-6.4h0.1c3.9 0 6.6 1 17.8 5.3l0.8 0.3c7.6 2.9 13.3 5.1 15.4 5.9l9.8 4.8c0.3 0.2 0.8 0 0.9-0.3 0.2-0.3 0-0.8-0.3-0.9l-6.9-3.4zm6.8-66.1c-0.6 1-1.7 1.7-3 2-0.3 0.1-0.5 0.3-0.6 0.6-0.4 3-0.6 6-0.5 9 0.1 2.3 0.2 4.6 0.6 6.9-10.7 7.6-12.4 6.8-12.7 6.6-0.5-0.4-0.1-3 0.3-6.1 0.1-0.5 0.1-0.9 0.2-1.3 0.2-1.1 0.3-2 0.3-3.3 0-1.4-0.2-2.9-0.5-4.3-0.1-0.3-0.4-0.5-0.7-0.5h-0.1c-1.9 0.1-3.4-0.2-4.5-1-2.8-2.1-2.6-6.8-2.4-11.7 0.1-2.5 0.4-5.1 1-7.6 1.7 1.2 3.6 2.1 5.7 2.6 3.7 0.9 6.9 0.3 9-0.3-0.1 1.2-0.1 2.4 0.1 3.6 0.2 1.3 0.4 2.4 1.4 2.9s2.5 0.2 3.8-1c1.5 0 2.6 0.8 2.8 1.5 0.2 0.1 0.1 0.8-0.2 1.4zm-11.3 44.7l-13.7-7c-0.4-2.1-0.8-6.8 2-11.4 1.6-2.6 3.7-4.3 5.4-5.4-0.4 2.8-0.4 4.2 0.4 5 0.3 0.3 0.7 0.5 1.4 0.5 0.9 0 2.3-0.4 4.4-1.5v19.8zm8.5-49.3c-0.2 0-0.3 0.1-0.5 0.2-1 1-2 1.3-2.4 1-0.3-0.2-0.5-0.8-0.6-1.9-0.2-1.4-0.2-2.8 0-4.3 0-0.2-0.1-0.5-0.2-0.7-0.2-0.2-0.5-0.2-0.7-0.1-1.7 0.7-5.2 1.6-9.2 0.6-2.2-0.5-4.2-1.6-6-3-0.2-0.2-0.4-0.2-0.7-0.1-0.2 0.1-0.4 0.3-0.5 0.5-0.7 2.9-1.2 5.9-1.3 8.9-0.2 5.3-0.4 10.4 2.9 12.9 1.2 0.9 2.9 1.4 4.8 1.4 0.2 1.1 0.3 2.3 0.4 3.4 0 1.2-0.1 2-0.3 3.1-0.1 0.4-0.1 0.8-0.2 1.4 0 0.2-0.1 0.4-0.1 0.6-2 1.1-4.8 3-6.8 6.4-3.2 5.2-2.5 10.6-2.1 12.7 0 0.2 0.2 0.4 0.4 0.5l15 7.7c0.1 0.1 0.2 0.1 0.3 0.1s0.3 0 0.4-0.1c0.2-0.1 0.3-0.4 0.3-0.6v-21.6c1.9-1.1 4.4-2.7 7.5-4.9 0.2-0.2 0.3-0.4 0.3-0.7-0.4-2.4-0.6-4.8-0.6-7.2-0.1-2.8 0.1-5.5 0.4-8.3 1.5-0.4 2.8-1.3 3.5-2.5 0.6-1 0.7-2 0.4-2.8-0.5-1.6-2.3-2.6-4.4-2.6zm36.5 54.8c-4.9 0-8.9-4-8.9-8.9s4-8.9 8.9-8.9 8.9 4 8.9 8.9-4 8.9-8.9 8.9zm0-19.3c-5.7 0-10.3 4.6-10.3 10.3s4.6 10.3 10.3 10.3 10.3-4.6 10.3-10.3c0-5.6-4.6-10.3-10.3-10.3zm26.9-52.3c-4.9 0-8.9-4-8.9-8.9s4-8.9 8.9-8.9 8.9 4 8.9 8.9c0.1 4.9-4 8.9-8.9 8.9zm0-19.3c-5.7 0-10.3 4.6-10.3 10.3s4.6 10.3 10.3 10.3 10.3-4.6 10.3-10.3c0-5.6-4.6-10.3-10.3-10.3zm-26.9 19.3c-4.9 0-8.9-4-8.9-8.9s4-8.9 8.9-8.9 8.9 4 8.9 8.9-4 8.9-8.9 8.9zm0-19.3c-5.7 0-10.3 4.6-10.3 10.3s4.6 10.3 10.3 10.3 10.3-4.6 10.3-10.3c0-5.6-4.6-10.3-10.3-10.3zm146.7-157.5c-0.1-0.4 0-0.8 0.4-0.9l15.6-6.3c0.4-0.1 0.8 0 0.9 0.4s0 0.8-0.4 0.9l-15.6 6.3c-0.1 0-0.2 0.1-0.3 0.1-0.2-0.1-0.5-0.2-0.6-0.5zm27.5-9.3c0.2 0.3 0.2 0.7-0.1 1-0.1 0.1-0.3 0.1-0.4 0.1-0.2 0-0.4-0.1-0.6-0.3-3.7-4.9-6.3-10.4-8-16.2-1.3-4.6-1.9-9.3-1.8-14 0-0.398 0.3-0.699 0.7-0.699s0.7 0.301 0.7 0.699c-0.1 4.6 0.5 9.2 1.7 13.6 1.7 5.7 4.3 11 7.8 15.8zm-253.6 236.6l0.6 0.6c0.7 0.7 1.4 1.3 2.1 1.9l-3.6 4.8c-1.2-0.4-2.2-1.1-3-2-1.8-2.1-1.9-4.9-1.7-6l0.1 0.1 1.2 1.2c1.1 1 2.4 1.8 3.8 2.4 0.2 0.1 0.5 0.1 0.7-0.1s0.3-0.5 0.2-0.7c-0.1-1-0.3-1.7-0.4-2.2zm-8.8-8.5c-0.7 0.8-1.4 1.5-2.1 2.3l4.6 4.1c-0.2 0.2-0.4 0.5-0.5 0.9-0.4 1.6-0.1 5 2 7.4 1 1.2 2.4 2.1 4.1 2.6h0.2c0.2 0 0.4-0.1 0.6-0.3l4.3-5.8c0.1-0.1 0.2-0.3 0.1-0.5 0-0.2-0.1-0.3-0.3-0.5-0.9-0.7-1.7-1.4-2.5-2.2l-0.8-0.8c-0.7-0.7-1.2-1.2-1.8-0.9-0.1 0-0.2 0.1-0.2 0.2-2.6-2.1-5.2-4.3-7.7-6.5zm67.6-234.2h10.3c-3.9 4.7-6.5 9.7-10.3 13.1zm228.5-20.5c-3.8-12.601-10.6-21.601-15.8-27.101l7.2-5.398c4.3 2.398 16.9 10.801 21.6 27.199 2.8 9.7 1.8 18.3 0.1 24.7v0.2c-1.1 3.8-2.4 6.8-3.4 8.8l-7.4 0.2c1.2-9.5 0.5-19.4-2.3-28.6zm-14.7 4.4c3 9 8 17.3 14.5 24.3l-37.6 0.8c-3.4-4.7-6.1-9.9-7.9-15.4-1.8-5.4-2.7-11.1-2.7-16.798l30.7-22.903c-1.2 10-0.2 20.403 3 30.001zm15.6 23.4c-6.3-6.8-11.3-15.1-14.2-23.9-4-11.7-3.9-22.302-3-29.501 5.1 5.403 11.4 14 15 26.001 2.6 8.8 3.4 18.3 2.2 27.4zm17.9-8.7h-4.2c1.7-6.5 2.5-15.1-0.3-24.701-5-17.5-18.6-26.097-22.7-28.301-0.2-0.097-0.5-0.097-0.7 0.102l-40.4 30.199c-0.2 0.102-0.3 0.301-0.3 0.602 0 5.999 0.9 11.899 2.8 17.599 1.9 5.8 4.7 11.2 8.3 16.1 0.1 0.2 0.3 0.3 0.6 0.3l48.2-1c0.3 0 0.5-0.1 0.6-0.4 1-1.9 2.5-5 3.6-9h4.6v160.7h-90.8c0.3-0.1 0.5-0.5 0.4-0.8l-9.3-31.7c-0.1-0.4-0.5-0.6-0.9-0.5s-0.6 0.5-0.5 0.9l1.7 5.9h-65.7l3.2-5.8c0.2-0.3 0.1-0.8-0.3-0.9-0.3-0.2-0.8-0.1-0.9 0.3l-7.5 13.3-21.8-39 4.7-6.9c0.2-0.3 0.1-0.7-0.2-1-0.3-0.2-0.7-0.1-1 0.2l-4.9 7.2c-0.1 0.2-0.2 0.5 0 0.7l22.5 40.1c-0.1 0.3 0 0.6 0.3 0.8h0.2l1.4 2.5c0 0.1-0.1 0.2 0 0.3 0.1 0.3 0.4 0.6 0.7 0.6h0.1c2.8 1.3 5.4 2.9 7.7 4.9 3.1 2.5 5.4 5.1 5.7 6-0.5 0-2.1-0.2-7.3-2.5-0.2-0.1-0.5-0.1-0.7 0.1s-0.3 0.4-0.3 0.7c0.4 2.1 1.1 4.2 2.1 6.2 1.3 2.6 3 5 5.1 7-3.2-0.1-8.7-0.9-13.7-4.9-5.1-4-7-9.2-7.8-12 0-0.2-0.1-0.3-0.3-0.4-9.1-6.3-17.5-13.5-24.9-21.6-11.8-12.8-17.5-19.4-17.5-28.9 0-10.5 7.2-18.8 13.3-24 0.3-0.2 0.3-0.7 0.1-1s-0.7-0.3-1-0.1c-0.1 0.1-0.2 0.1-0.2 0.2-0.5-0.4-0.9-0.9-1.4-1.3 8.1-9.5 15.3-16.8 20.8-22 10.5-10.1 14.6-12.5 17.5-14 9.1-4.6 17.8-5.3 23.6-5.3 0 0.3 0.2 0.6 0.5 0.7h0.2c0.3 0 0.6-0.2 0.7-0.5 1.6-4.8 2.5-9.9 2.8-14.9 0.3-5.4-0.2-10.9-1.5-16.2-0.1-0.2-0.2-0.4-0.4-0.5-5.1-2-8.5-5.6-8.2-8.5 0-0.4 0.2-1.8 1.4-2.8 1.5-1.4 3.9-1.6 6.3-0.6 0.1 0 0.2 0.1 0.3 0 4.5-0.4 11.2-1.9 17.9-6.6 6.6-4.7 10.3-10.602 12.2-15.102 1.8 2.602 3.9 4.903 6.5 6.801 1.6 1.199 3.4 2.301 5.2 3.201 0.2 5 0.1 10.1-0.3 15-0.8 12.6-2.6 16.2-4.3 18.1-2 2.2-4.7 3.7-8.2 4.5-0.3 0.1-0.5 0.3-0.5 0.5-0.8 3.2-1.1 6.4-1 9.7 0.1 2.5 0.4 5 1 7.4 0.1 0.4 0.5 0.6 0.8 0.5 0.4-0.1 0.6-0.5 0.5-0.8-0.6-2.3-0.9-4.7-1-7.1-0.1-3 0.2-6 0.9-8.9 3.5-0.9 6.3-2.5 8.4-4.9 1.6-1.8 3.2-4.7 4.2-13.3h8.4c0.2 0.8 0.4 1.7 0.7 2.5 1.6 5.3 4 10.4 7.1 15.1 0.1 0.2 0.4 0.3 0.6 0.3 0.1 0 0.2 0 0.3-0.1l3.9-1.7c0.4-0.2 0.5-0.6 0.4-0.9-0.2-0.4-0.6-0.5-0.9-0.4l-3.4 1.5c-2.8-4.4-5.1-9.2-6.6-14.2-1.4-4.5-2.2-9.2-2.5-14l4.3-1.9c0.4-0.2 0.5-0.6 0.3-0.9-0.2-0.4-0.6-0.5-0.9-0.3l-4.7 2.1c-0.3 0.1-0.4 0.4-0.4 0.7 0.2 3.7 0.7 7.3 1.5 10.9h-7.9c0.1-1.3 0.2-2.7 0.4-4.3 0.2-3.1 0.3-6.2 0.3-9.4 2.3-3.3 5.2-8.901 4-14.998-2.2-11-17.2-17.801-28.8-17.801-21.6 0.097-22.7 23.597-51 33.999-25.2 9.3-38.5-4.4-54 9-1.3 1.1-2.4 2.3-3.5 3.5-0.1-0.1-0.3-0.2-0.5-0.2h-10.9v-73.998h247.3v74.298zm-109.4 137.3c0.5 1.7 2.1 5.5 6.2 7.6 2.2 1.2 4.5 1.5 6.1 1.5h0.9l4.5 15.3c0.1 0.2 0.3 0.4 0.5 0.4h-40.5l3.1-4.6c0.1-0.1 0.1-0.2 0.1-0.4v-19.9h19.1zm12.8 7.7c-1.5 0.1-3.7-0.1-5.9-1.3-3.3-1.8-4.8-4.8-5.4-6.4h9zm-33.3-7.7v19.6l-2.4 3.6v-23.2zm-39.8 6.9l3.9-6.9h10c-1 2-2.6 4.4-5.4 6.5-2 1.5-4.4 2.6-7 3.2zm-77.6 19.3h70.4c0.4 0 0.7-0.3 0.7-0.7s-0.3-0.7-0.7-0.7h-70.4v-60.3c5.9 2.2 14.1 3.6 25.6 3.7 1 9.3 7.8 16.7 17.7 27.5 7.4 8.1 15.8 15.3 24.9 21.6 0.8 3 2.9 8.3 8.2 12.5 5.6 4.5 11.8 5.2 15.1 5.2h1.3c0.3 0 0.5-0.2 0.6-0.5s0-0.6-0.2-0.8c-2.6-2.2-4.6-4.8-6.1-7.8-0.7-1.4-1.3-2.9-1.6-4.5 6.3 2.8 7.4 2.2 7.9 1.5 1.1-1.7-3.9-6.1-6.1-7.9-2-1.7-4.2-3.1-6.5-4.3 2.2-0.7 4.3-1.7 6.2-3.1 3.3-2.4 5.1-5.4 6.1-7.6h20.5v24.8h-25.7c-0.4 0-0.7 0.3-0.7 0.7s0.3 0.7 0.7 0.7h159.4v117h-247.3zm255.2 121.1c0 14.7-12 26.7-26.7 26.7h-210.5c-14.7 0-26.7-12-26.7-26.7v-187.8c1.9 1.6 4.3 3.1 7.3 4.4v180c0 0.4 0.3 0.7 0.7 0.7h248.7c0.4 0 0.7-0.3 0.7-0.7v-356.2c0-0.4-0.3-0.701-0.7-0.701h-248.7c-0.4 0-0.7 0.301-0.7 0.699v90.702c-1.9 1.4-4.1 2.5-6.8 3-0.2 0-0.4 0.1-0.5 0.1v-92.7c0-14.699 12-26.699 26.7-26.699h210.5c14.7 0 26.7 12 26.7 26.699zm-244.9-385.5c-11.8 3.301-20.4 14.199-20.4 27v92.9c-6.8 0.8-10.5-1.7-16.6 1.5-7.1 3.7-12.2 12.9-11 20.7s7.7 8.6 14.5 18c9.8 13.5 4.6 23.6 10.5 33 0.7 1.1 1.5 2.2 2.6 3.3v189.1c0 15.5 12.6 28.1 28.1 28.1h210.5c15.5 0 28.1-12.6 28.1-28.1v-358.5c0-15.5-12.6-28.102-28.1-28.102h-210.5c-2.7 0.102-5.2 0.403-7.7 1.102" fill="#0f0e0c"/></g>
  <g id="change1_2"><path d="m542.8 144.95l0.5-5.2 2.6 0.4 2.6 5.3-0.5 2.6 8.5-0.7 1.3 2.6-1.2 3.5 1.9 1.5-1.5 3.1 0.5 3.3-3.7 2.3-13-0.5 1.1-5.1 0.9-13.1" fill="#f2cdf1"/></g>
  <g id="change3_2"><path d="m66.699 164.65c-0.301 0.2-0.398 0.6-0.199 0.9 0.598 1 0.5 1.8 0.398 2.2-0.398 1.8-2.597 3.1-5.199 3.1h-11.101v-16.7c0.402-1.5 0.601-3.1 0.703-4.7v-2.1c0-1.2 0-2 0.297-2.2 0.402-0.3 1.5 0.1 2.203 0.5 3.097 1.9 2.5 7.7 2.398 8.4 0 0.2 0 0.4 0.199 0.5 0.102 0.1 0.301 0.2 0.5 0.2 2.301 0 4.5-0.2 6.602-0.4h0.199c1.199-0.2 2.301-0.3 2.899 0.3 0.402 0.4 0.5 1 0.601 1.4 0.301 1.4-0.398 2.7-0.699 3.3-0.102 0.2-0.102 0.4-0.102 0.6 0.102 0.2 0.2 0.4 0.403 0.4 0.398 0.1 1 0.4 1.297 1 0.402 1 0 2.4-1.399 3.3zm1.301-5.2c0.398-0.9 0.801-2.2 0.598-3.6-0.098-0.6-0.297-1.5-1.098-2.2-1.102-1-2.602-0.8-4-0.6h-0.199c-1.801 0.2-3.703 0.4-5.703 0.4 0.101-2.1 0-7-3.2-8.9-0.398-0.2-2.398-1.4-3.699-0.5-0.898 0.6-0.898 1.8-0.898 3.4v2c-0.102 1.5-0.301 3.1-0.602 4.5v0.2h-5.601v18.2h18c3.3 0 6-1.8 6.5-4.2 0.101-0.6 0.101-1.5-0.297-2.6 1.5-1.2 2.097-3.1 1.398-4.6-0.199-0.8-0.699-1.2-1.199-1.5zm77 65.1l-13.6 13.6-13.6-13.6c-3.4-3.8-3.2-9.6 0.3-13.2 3.6-3.6 9.5-3.8 13.3-0.4 3.6-3.2 8.8-3.5 12.2-1 4.3 3 5.3 9.8 1.4 14.6zm397.8-76.5c0.3-1.3 0.5-2.7 0.6-4.1v-1.8c0-0.9 0-1.7 0.2-1.9 0.3-0.2 1.2 0.1 1.8 0.4 2.6 1.6 2.1 6.6 2.1 7.1 0 0.2 0 0.4 0.2 0.5 0.1 0.1 0.3 0.2 0.5 0.2 2 0 3.9-0.1 5.7-0.4h0.2c1-0.1 1.9-0.3 2.4 0.2 0.3 0.3 0.4 0.8 0.5 1.2 0.2 1.2-0.3 2.3-0.6 2.8-0.1 0.2-0.1 0.4-0.1 0.6 0.1 0.2 0.2 0.4 0.4 0.4 0.2 0.1 0.8 0.3 1 0.9 0.3 0.7 0 1.9-1.2 2.7-0.3 0.2-0.4 0.6-0.2 0.9 0.4 0.8 0.4 1.4 0.4 1.8-0.3 1.5-2.2 2.6-4.4 2.6h-9.5zm-0.7 15.7h10.2c2.9 0 5.3-1.6 5.7-3.7 0.1-0.5 0.1-1.3-0.2-2.2 1.3-1.1 1.8-2.7 1.2-4-0.3-0.6-0.7-1-1.1-1.2 0.4-0.8 0.7-1.9 0.5-3.1-0.1-0.5-0.2-1.3-0.9-2-1-0.9-2.3-0.7-3.5-0.6h-0.2c-1.5 0.2-3.1 0.3-4.8 0.3 0.1-1.9 0-6-2.8-7.7-0.5-0.3-2.1-1.2-3.3-0.4-0.8 0.6-0.8 1.6-0.8 3v1.7c-0.1 1.3-0.3 2.6-0.6 3.9v0.2h-4.7v15.7h5c0.1 0.1 0.2 0.1 0.3 0.1zm18.3 82.6h-15.4c1.3-1.3 2.9-3.3 4.2-6.1 2.3-5.1 2-9.8 1.7-11.9-1.8-1.1-3.9-2.6-6-4.6-1.8-1.6-3.2-3.2-4.3-4.6-0.9 1.5-2.5 3.9-5.2 6-2.2 1.7-4.3 2.7-5.8 3.2-0.3 1.7-0.6 4.8 0.3 8.5 1.1 4.3 3.4 7 4.7 8.3v1.2h-13.5c-2.2-5.1-2.1-8.8-1.1-11.5 1-2.8 2.4-3 4.3-6.8 2.8-5.5 1.1-7.7 3.3-10.9 3.4-5.1 11.2-5.2 12.8-5.3 6.3-0.1 14.7 2.8 16.6 8.5 1.5 4.3-1.9 6.7 0.3 11.8 1.3 3.1 3.3 3.8 4 7 0.6 2.8-0.2 5.4-0.9 7.2zm-246.7-174.4h-51.3v-4h51.3zm-96.2 258.3c0.5 5.4-3.4 11-9.8 12.9 0.1-1.9 0.2-3.7 0.5-5.4 3-0.5 4.4-3 3.9-4.6-0.4-1.1-1.9-2-3.8-1.9-1.2 1.1-2.4 1.6-3.3 1.1-0.6-0.3-0.8-1.2-1-2.4-0.2-1-0.3-2.6 0-4.5-1.4 0.6-5.1 1.7-9.6 0.6-3-0.7-5.1-2.2-6.3-3.1-0.5 1.8-0.8 3.5-1 5.1-1.3-2.5-2.5-5.1-3.8-7.6 4.3-6.9 12.2-10.1 18.9-8 6.6 2 9.3 8.4 9.8 9.4 0.7 0.5 5 3.4 5.5 8.4zm44.6 44h54v4.3h-54zm28.6-20.3h-54v-4.3h54zm-54-16.9h221.5v4.3h-221.5zm0-12.7h221.5v4.7h-221.5zm52.4-15.8h85.3v4.5h-85.3zm51.3-11.3v4h-51.3v-4zm36.1 117.1c0 3.1-2.5 5.7-5.7 5.7h-46.9c-3.1 0-5.7-2.5-5.7-5.7 0-3.1 2.5-5.7 5.7-5.7h46.9c3.1 0.1 5.7 2.6 5.7 5.7zm-56.7-379.6h57.2c1.7 0 3-1.301 3-3s-1.3-3-3-3h-57.2c-1.7 0-3 1.301-3 3s1.4 3 3 3zm320.8 219.3l-17-17c-4.2-4.7-4.1-12 0.4-16.5s11.8-4.8 16.6-0.5c4.6-4 11-4.4 15.3-1.3 5.3 3.8 6.6 12.3 1.7 18.3l-17 17zm-528.9 169.3c-0.5 0.2-1 0.4-1.5 0.7v0.7h-1.6c-1.6 0.8-3.3 1.7-5.1 2.7-2.4 1.4-4.5 2.9-6.301 4.3-1.398-2.4-2.699-4.6-3.898-6.6-2.903 0.1-5.703 0.1-8.602 0.2-0.699-18.8-0.301-28.3 1.301-28.5 1.098-0.1 2.801 4.3 5.098 13.4 0.902 0.8 1.902 1.6 2.902 2.7h12.7l3 5.4 0.1 1.4c0.7 1.2 1.3 2.4 1.9 3.6" fill="#0f0e0c"/></g>
  <g id="change2_3"><path d="m443.7 115.05c3.8-3.2 7.7-6.5 11.5-9.7 0.2-0.4 2.1-3.7 0.6-7.6-1.4-3.699-4.9-5-5.3-5.199-4.6 0.199-9.3 0.398-13.9 0.597 0.4 3.204 1.1 7.202 2.6 11.602 1.3 4.1 2.9 7.5 4.5 10.3zm46.9 308.8c0-9.9-7.1-17.7-15.5-18.6-6.2-0.6-12.5 2.8-16.2 8.6-5.2-3.7-12-4.4-17.7-1.8-7.4 3.4-9.3 10.8-9.6 11.8-4.5 0.7-7.8 4.7-7.7 9.2 0.1 4.7 3.9 8.6 8.7 8.8h57.9c5.1 0.1 9.3-3.8 9.6-8.5 0.4-5-4-9.6-9.5-9.5zm-263.9-31.5c0.5-8.4 2.5-22.6-3.2-30.7-2.8-4-6.7-6-6.7-6-3.5-1.8-6.8-1.9-8.6-1.8-3.1 2.4-5.7 4.2-7.8 5.4v21.8l-15-7.7c-0.3-1.3-1.2-6.8 2-12.2 2.2-3.6 5.2-5.4 6.7-6.2 0.1-0.3 0.2-0.7 0.3-1.1-1.6 0.2-5.7 0.8-9.3 4.1-5.6 5-5.5 12.1-5.5 13.2l-9.8-4.4-4.8 6.6 9.2 8-1.2 5.7-11 3.7 24 9.2-0.7-9.2 16.5 8.3 2.7-1.7c-0.3 4-0.6 8.3-0.7 12.8-0.1 6.9 0.2 13.3 0.7 19.2 3.4 0.6 8.3 1 14 0.2 4.6-0.7 8.4-2 11.2-3.2-3.3-14.2-3.5-25.8-3-34zm151.2-223c-3.2-4.2-9.6-10.1-23-13.5 0.2 1.3 1.7 15.1-4.3 18.3-5.5 3-17.2-3.3-26.3-18.3-5.7-0.1-14.7 0.6-24 5.3-2.9 1.5-7 3.9-17.5 14-5.4 5.2-12.7 12.6-20.8 22 7.5 6.9 15 13.8 22.5 20.8l19.5-20c1.9 7.2 3.6 15.8 4.5 25.5 1 10 1 18.9 0.5 26.5 10.4 0.8 21.7 1.3 33.8 1.3 10-0.1 19.4-0.5 28.3-1.3-1.3-5.8-2.3-13.4-1.5-22.3 0.3-3.4 0.9-6.5 1.5-9.3 0.7 0.8 1.3 1.5 2 2.3l19.8-26.5c-1.7-3-4.3-7.4-7.5-12.8-4.1-6.8-6.2-10.2-7.5-12" fill="#53c289"/></g>
  <g id="change3_3"><path d="m450.9 93.148c-0.1 0-0.2 0-0.4 0.102-1.3 0.398-1.9 3.301-0.7 6.699 1.1 3.401 3.3 5.401 4.6 5.001s1.9-3.3 0.7-6.7c-1-3.199-3-5.102-4.2-5.102zm3.1 13.202c-2.1 0-4.4-2.4-5.6-6-1.3-3.998-0.6-7.702 1.6-8.498 2.2-0.704 5 1.796 6.4 5.796 1.3 4.002 0.6 7.702-1.6 8.502-0.3 0.2-0.5 0.2-0.8 0.2" fill="#0f0e0c"/></g>
  <g clip-path="url(#clip1)" id="change3_4">
   <path d="m146.1 390.45c0.2-0.3 0.2-0.7-0.1-1-83.902-67.6-127.9-148.3-120.9-221.6 4.599-48 39.498-125 102.4-146 7.7-2.6 28.4-8.1 54.9-4.401 14.3 2 26.6 6.199 37.8 12.801 0.3 0.199 0.8 0.102 1-0.199s0.1-0.801-0.2-1c-11.4-6.699-23.9-11-38.3-13-26.8-3.699-47.8 1.898-55.5 4.5-36.001 11.898-59.802 40.5-73.501 62.398-16.199 25.901-27.398 57.601-30 84.701-3.699 39.3 6.301 79.7 29.899 120.2 20.8 35.8 52.502 71.3 91.502 102.7 0.1 0.1 0.3 0.2 0.4 0.2 0.2 0 0.4-0.1 0.6-0.3zm288.6 109.6c-11.1 0-22.4-0.5-33.9-1.6-50.6-4.7-91.1-19-108.4-25-30.6-10.7-62.6-26.1-92.5-44.4-0.3-0.2-0.4-0.6-0.2-1 0.2-0.3 0.6-0.4 1-0.2 29.9 18.3 61.8 33.6 92.3 44.3 105.7 37.1 199.9 35.2 280-5.6 42-21.6 141-82.8 147.3-186.5 0.6-9.5 3.8-94.5-58.3-143.1-19.6-15.3-54.1-33.4-107.3-32.2-18.7 0.4-29.4 3.7-43.1 7.9-6.7 2.1-14.3 4.4-23.8 6.6-1.4 0.3-3.8 0.9-6.9 1.5-0.4 0.1-0.7-0.2-0.8-0.5-0.1-0.4 0.2-0.7 0.5-0.8 3.1-0.7 5.5-1.2 6.9-1.5 9.4-2.2 17-4.5 23.7-6.6 13.8-4.2 24.6-7.5 43.5-7.9 53.5-1.2 88.4 17 108.1 32.5 62.7 49 59.4 134.7 58.8 144.3-2.9 48.6-26.5 93.6-70.1 133.8-15.5 14.3-41.6 35.2-78.2 53.8-42.1 21.4-88.6 32.2-138.6 32.2" fill="#0f0e0c"/>
  </g>
 </g>
</svg>