<?xml version="1.0" encoding="UTF-8"?><svg xmlns="http://www.w3.org/2000/svg" xmlns:xlink="http://www.w3.org/1999/xlink" height="2095.5" preserveAspectRatio="xMidYMid meet" version="1.0" viewBox="333.6 271.7 1879.0 2095.5" width="1879.0" zoomAndPan="magnify"><g><g id="change1_1"><path d="M 1416.054688 350.351562 C 992.476562 271.691406 669.820312 565.789062 645.898438 588.316406 C 607.984375 624.011719 333.574219 862.222656 341.714844 1283.128906 C 354.902344 1965.429688 613.035156 2071.75 798.363281 2122.679688 C 934.957031 2160.21875 2084.179688 2367.199219 2168.390625 1410.347656 C 2212.53125 908.90625 1871.421875 434.917969 1416.054688 350.351562" fill="#caddff"/></g><g id="change2_1"><path d="M 2172.757812 1868.226562 L 2125.996094 1891.828125 L 524.273438 1588.078125 L 514.863281 445.277344 L 561.621094 420.765625 L 2172.757812 718.832031 L 2172.757812 1868.226562" fill="#5479f7"/></g><g id="change3_1"><path d="M 2125.992188 1891.828125 L 514.859375 1593.78125 L 514.859375 445.285156 L 2125.992188 743.34375 L 2125.992188 1891.828125" fill="#99b9ff"/></g><g id="change1_2"><path d="M 2133.644531 742.441406 C 2132.4375 742.441406 2131.296875 741.804688 2130.699219 740.664062 C 2129.847656 739.042969 2130.488281 737.039062 2132.105469 736.191406 L 2158.550781 722.371094 C 2160.171875 721.519531 2162.175781 722.144531 2163.023438 723.777344 C 2163.875 725.398438 2163.25 727.402344 2161.628906 728.25 L 2135.171875 742.070312 C 2134.679688 742.324219 2134.164062 742.441406 2133.644531 742.441406" fill="#caddff"/></g><g id="change4_1"><path d="M 1424.179688 1074.988281 L 460.183594 896.082031 C 455.992188 895.304688 452.953125 891.652344 452.953125 887.382812 L 452.953125 361.652344 C 452.953125 356.132812 457.972656 351.953125 463.410156 352.96875 L 1427.410156 531.863281 C 1431.601562 532.640625 1434.644531 536.304688 1434.644531 540.558594 L 1434.644531 1066.289062 C 1434.644531 1071.8125 1429.625 1076.003906 1424.179688 1074.988281" fill="#fff"/></g><g id="change5_1"><path d="M 461.792969 356.121094 C 460.511719 356.121094 459.269531 356.570312 458.261719 357.402344 C 457 358.457031 456.269531 360 456.269531 361.652344 L 456.269531 887.382812 C 456.269531 890.050781 458.171875 892.332031 460.789062 892.820312 L 1424.796875 1071.734375 C 1426.417969 1072.023438 1428.070312 1071.601562 1429.335938 1070.53125 C 1430.601562 1069.488281 1431.328125 1067.933594 1431.328125 1066.285156 L 1431.328125 540.5625 C 1431.328125 537.898438 1429.429688 535.617188 1426.816406 535.128906 L 462.808594 356.214844 C 462.46875 356.160156 462.128906 356.121094 461.792969 356.121094 Z M 1425.8125 1078.464844 C 1425.074219 1078.464844 1424.320312 1078.382812 1423.582031 1078.253906 L 459.578125 899.339844 C 453.816406 898.269531 449.636719 893.242188 449.636719 887.382812 L 449.636719 361.652344 C 449.636719 358.035156 451.234375 354.617188 454.023438 352.308594 C 456.8125 349.984375 460.449219 349.035156 464.015625 349.695312 L 1428.027344 528.609375 C 1433.78125 529.675781 1437.964844 534.703125 1437.964844 540.5625 L 1437.964844 1066.285156 C 1437.964844 1069.914062 1436.367188 1073.328125 1433.570312 1075.640625 C 1431.367188 1077.472656 1428.621094 1078.464844 1425.8125 1078.464844" fill="inherit"/></g><g id="change1_3"><path d="M 1362.386719 1006.132812 L 1312.964844 997.113281 C 1307.945312 996.207031 1304.289062 991.828125 1304.289062 986.730469 L 1304.289062 705.347656 C 1304.289062 698.757812 1310.273438 693.78125 1316.757812 694.964844 L 1366.179688 703.988281 C 1371.199219 704.894531 1374.84375 709.273438 1374.84375 714.371094 L 1374.84375 995.75 C 1374.84375 1002.34375 1368.871094 1007.320312 1362.386719 1006.132812" fill="#caddff"/></g><g id="change1_4"><path d="M 1266.441406 987.152344 L 1217.019531 978.136719 C 1212.003906 977.214844 1208.359375 972.84375 1208.359375 967.742188 L 1208.359375 764.523438 C 1208.359375 757.933594 1214.328125 752.949219 1220.824219 754.128906 L 1270.246094 763.152344 C 1275.25 764.0625 1278.90625 768.4375 1278.90625 773.539062 L 1278.90625 976.765625 C 1278.90625 983.355469 1272.933594 988.339844 1266.441406 987.152344" fill="#caddff"/></g><g id="change1_5"><path d="M 1170.515625 968.15625 L 1121.09375 959.136719 C 1116.078125 958.222656 1112.421875 953.855469 1112.421875 948.746094 L 1112.421875 856.070312 C 1112.421875 849.476562 1118.394531 844.492188 1124.882812 845.679688 L 1174.304688 854.699219 C 1179.320312 855.613281 1182.96875 859.980469 1182.96875 865.085938 L 1182.96875 957.765625 C 1182.96875 964.367188 1176.996094 969.34375 1170.515625 968.15625" fill="#caddff"/></g><g id="change1_6"><path d="M 1074.570312 949.175781 L 1025.15625 940.152344 C 1020.128906 939.238281 1016.484375 934.867188 1016.484375 929.761719 L 1016.484375 870.429688 C 1016.484375 863.835938 1022.464844 858.851562 1028.941406 860.039062 L 1078.367188 869.050781 C 1083.378906 869.964844 1087.035156 874.347656 1087.035156 879.441406 L 1087.035156 938.785156 C 1087.035156 945.378906 1081.054688 950.351562 1074.570312 949.175781" fill="#caddff"/></g><g id="change1_7"><path d="M 978.632812 930.1875 L 929.214844 921.171875 C 924.195312 920.25 920.546875 915.875 920.546875 910.777344 L 920.546875 788.355469 C 920.546875 781.757812 926.523438 776.78125 933.007812 777.964844 L 982.425781 786.980469 C 987.445312 787.902344 991.09375 792.269531 991.09375 797.375 L 991.09375 919.796875 C 991.09375 926.394531 985.121094 931.375 978.632812 930.1875" fill="#caddff"/></g><g id="change1_8"><path d="M 882.695312 911.203125 L 833.277344 902.1875 C 828.257812 901.265625 824.609375 896.894531 824.609375 891.789062 L 824.609375 860.921875 C 824.609375 854.332031 830.582031 849.347656 837.070312 850.53125 L 886.488281 859.554688 C 891.507812 860.46875 895.15625 864.839844 895.15625 869.945312 L 895.15625 900.8125 C 895.15625 907.402344 889.183594 912.386719 882.695312 911.203125" fill="#caddff"/></g><g id="change1_9"><path d="M 786.757812 892.214844 L 737.339844 883.195312 C 732.320312 882.28125 728.671875 877.90625 728.671875 872.808594 L 728.671875 840.578125 C 728.671875 833.988281 734.644531 829.003906 741.132812 830.195312 L 790.550781 839.207031 C 795.570312 840.128906 799.21875 844.496094 799.21875 849.601562 L 799.21875 881.820312 C 799.21875 888.414062 793.242188 893.394531 786.757812 892.214844" fill="#caddff"/></g><g id="change1_10"><path d="M 690.820312 873.230469 L 641.402344 864.214844 C 636.382812 863.296875 632.734375 858.925781 632.734375 853.824219 L 632.734375 811.039062 C 632.734375 804.457031 638.707031 799.46875 645.191406 800.648438 L 694.613281 809.671875 C 699.632812 810.589844 703.277344 814.960938 703.277344 820.0625 L 703.277344 862.839844 C 703.277344 869.429688 697.304688 874.417969 690.820312 873.230469" fill="#caddff"/></g><g id="change1_11"><path d="M 805.359375 549.105469 L 536.839844 499.082031 C 523.914062 496.707031 514.523438 485.449219 514.523438 472.308594 C 514.523438 455.304688 529.929688 442.46875 546.648438 445.535156 L 815.167969 495.546875 C 828.097656 497.917969 837.488281 509.179688 837.488281 522.320312 C 837.488281 539.324219 822.082031 552.160156 805.359375 549.105469" fill="#caddff"/></g><g id="change5_2"><path d="M 529.042969 803.664062 C 527.9375 803.664062 526.855469 803.109375 526.226562 802.101562 C 525.257812 800.550781 525.730469 798.507812 527.285156 797.535156 L 732.414062 669.542969 C 733.71875 668.730469 735.414062 668.917969 736.503906 670.011719 L 823.8125 756.683594 L 984.625 656.230469 C 985.945312 655.40625 987.664062 655.617188 988.75 656.722656 L 1083.625 753.746094 L 1350.675781 587.472656 C 1352.226562 586.511719 1354.269531 586.980469 1355.242188 588.542969 C 1356.207031 590.089844 1355.738281 592.132812 1354.175781 593.109375 L 1084.863281 760.789062 C 1083.542969 761.613281 1081.824219 761.402344 1080.742188 760.296875 L 985.875 663.273438 L 825.101562 763.703125 C 823.792969 764.523438 822.097656 764.324219 821.003906 763.242188 L 733.695312 676.5625 L 530.796875 803.15625 C 530.25 803.507812 529.644531 803.664062 529.042969 803.664062" fill="inherit"/></g><g id="change3_2"><path d="M 761.335938 673.144531 C 761.335938 687.984375 749.308594 700.007812 734.46875 700.007812 C 719.632812 700.007812 707.605469 687.984375 707.605469 673.144531 C 707.605469 658.316406 719.632812 646.28125 734.46875 646.28125 C 749.308594 646.28125 761.335938 658.316406 761.335938 673.144531" fill="#99b9ff"/></g><g id="change5_3"><path d="M 734.472656 649.589844 C 721.492188 649.589844 710.929688 660.148438 710.929688 673.136719 C 710.929688 686.125 721.492188 696.6875 734.472656 696.6875 C 747.457031 696.6875 758.019531 686.125 758.019531 673.136719 C 758.019531 660.148438 747.457031 649.589844 734.472656 649.589844 Z M 734.472656 703.316406 C 717.832031 703.316406 704.296875 689.78125 704.296875 673.136719 C 704.296875 656.492188 717.832031 642.957031 734.472656 642.957031 C 751.117188 642.957031 764.652344 656.492188 764.652344 673.136719 C 764.652344 689.78125 751.117188 703.316406 734.472656 703.316406" fill="inherit"/></g><g id="change3_3"><path d="M 1012.941406 658.738281 C 1012.941406 673.566406 1000.914062 685.601562 986.078125 685.601562 C 971.242188 685.601562 959.214844 673.566406 959.214844 658.738281 C 959.214844 643.894531 971.242188 631.875 986.078125 631.875 C 1000.914062 631.875 1012.941406 643.894531 1012.941406 658.738281" fill="#99b9ff"/></g><g id="change5_4"><path d="M 986.074219 635.199219 C 973.089844 635.199219 962.527344 645.761719 962.527344 658.75 C 962.527344 671.734375 973.089844 682.296875 986.074219 682.296875 C 999.058594 682.296875 1009.617188 671.734375 1009.617188 658.75 C 1009.617188 645.761719 999.058594 635.199219 986.074219 635.199219 Z M 986.074219 688.921875 C 969.433594 688.921875 955.894531 675.382812 955.894531 658.75 C 955.894531 642.101562 969.433594 628.5625 986.074219 628.5625 C 1002.71875 628.5625 1016.257812 642.101562 1016.257812 658.75 C 1016.257812 675.382812 1002.71875 688.921875 986.074219 688.921875" fill="inherit"/></g><g id="change1_12"><path d="M 852.613281 759.714844 C 852.613281 774.546875 840.585938 786.582031 825.75 786.582031 C 810.914062 786.582031 798.886719 774.546875 798.886719 759.714844 C 798.886719 744.875 810.914062 732.851562 825.75 732.851562 C 840.585938 732.851562 852.613281 744.875 852.613281 759.714844" fill="#caddff"/></g><g id="change5_5"><path d="M 825.746094 736.179688 C 812.761719 736.179688 802.199219 746.738281 802.199219 759.726562 C 802.199219 772.707031 812.761719 783.265625 825.746094 783.265625 C 838.726562 783.265625 849.292969 772.707031 849.292969 759.726562 C 849.292969 746.738281 838.726562 736.179688 825.746094 736.179688 Z M 825.746094 789.902344 C 809.105469 789.902344 795.566406 776.367188 795.566406 759.726562 C 795.566406 743.078125 809.105469 729.542969 825.746094 729.542969 C 842.386719 729.542969 855.921875 743.078125 855.921875 759.726562 C 855.921875 776.367188 842.386719 789.902344 825.746094 789.902344" fill="inherit"/></g><g id="change1_13"><path d="M 556.664062 800.890625 C 556.664062 815.722656 544.636719 827.753906 529.800781 827.753906 C 514.964844 827.753906 502.933594 815.722656 502.933594 800.890625 C 502.933594 786.054688 514.964844 774.027344 529.800781 774.027344 C 544.636719 774.027344 556.664062 786.054688 556.664062 800.890625" fill="#caddff"/></g><g id="change5_6"><path d="M 529.800781 777.332031 C 516.820312 777.332031 506.257812 787.898438 506.257812 800.882812 C 506.257812 813.871094 516.820312 824.425781 529.800781 824.425781 C 542.785156 824.425781 553.347656 813.871094 553.347656 800.882812 C 553.347656 787.898438 542.785156 777.332031 529.800781 777.332031 Z M 529.800781 831.066406 C 513.160156 831.066406 499.625 817.519531 499.625 800.882812 C 499.625 784.238281 513.160156 770.699219 529.800781 770.699219 C 546.441406 770.699219 559.980469 784.238281 559.980469 800.882812 C 559.980469 817.519531 546.441406 831.066406 529.800781 831.066406" fill="inherit"/></g><g id="change1_14"><path d="M 1110.394531 755.90625 C 1110.394531 770.738281 1098.367188 782.765625 1083.523438 782.765625 C 1068.691406 782.765625 1056.664062 770.738281 1056.664062 755.90625 C 1056.664062 741.066406 1068.691406 729.039062 1083.523438 729.039062 C 1098.367188 729.039062 1110.394531 741.066406 1110.394531 755.90625" fill="#caddff"/></g><g id="change5_7"><path d="M 1083.519531 732.359375 C 1070.539062 732.359375 1059.976562 742.925781 1059.976562 755.914062 C 1059.976562 768.886719 1070.539062 779.457031 1083.519531 779.457031 C 1096.511719 779.457031 1107.070312 768.886719 1107.070312 755.914062 C 1107.070312 742.925781 1096.511719 732.359375 1083.519531 732.359375 Z M 1083.519531 786.085938 C 1066.878906 786.085938 1053.339844 772.546875 1053.339844 755.914062 C 1053.339844 739.269531 1066.878906 725.730469 1083.519531 725.730469 C 1100.167969 725.730469 1113.699219 739.269531 1113.699219 755.914062 C 1113.699219 772.546875 1100.167969 786.085938 1083.519531 786.085938" fill="inherit"/></g><g id="change1_15"><path d="M 1379.277344 590.292969 C 1379.277344 605.132812 1367.265625 617.15625 1352.425781 617.15625 C 1337.589844 617.15625 1325.566406 605.132812 1325.566406 590.292969 C 1325.566406 575.453125 1337.589844 563.429688 1352.425781 563.429688 C 1367.265625 563.429688 1379.277344 575.453125 1379.277344 590.292969" fill="#caddff"/></g><g id="change5_8"><path d="M 1352.417969 566.75 C 1339.433594 566.75 1328.863281 577.316406 1328.863281 590.300781 C 1328.863281 603.285156 1339.433594 613.84375 1352.417969 613.84375 C 1365.402344 613.84375 1375.96875 603.285156 1375.96875 590.300781 C 1375.96875 577.316406 1365.402344 566.75 1352.417969 566.75 Z M 1352.417969 620.484375 C 1335.78125 620.484375 1322.234375 606.941406 1322.234375 590.300781 C 1322.234375 573.664062 1335.78125 560.121094 1352.417969 560.121094 C 1369.054688 560.121094 1382.597656 573.664062 1382.597656 590.300781 C 1382.597656 606.941406 1369.054688 620.484375 1352.417969 620.484375" fill="inherit"/></g><g id="change4_2"><path d="M 2053.652344 1193.167969 L 1498.917969 1091.9375 C 1494.726562 1091.167969 1491.675781 1087.507812 1491.675781 1083.238281 L 1491.675781 555.214844 C 1491.675781 549.691406 1496.675781 545.527344 1502.109375 546.515625 L 2056.828125 647.742188 C 2061.019531 648.515625 2064.085938 652.175781 2064.085938 656.457031 L 2064.085938 1184.46875 C 2064.085938 1189.988281 2059.082031 1194.167969 2053.652344 1193.167969" fill="#fff"/></g><g id="change5_9"><path d="M 1500.507812 549.699219 C 1499.214844 549.699219 1497.972656 550.144531 1496.972656 550.980469 C 1495.703125 552.03125 1494.980469 553.578125 1494.980469 555.230469 L 1494.980469 1083.238281 C 1494.980469 1085.914062 1496.882812 1088.199219 1499.519531 1088.679688 L 2054.230469 1189.917969 C 2055.851562 1190.210938 2057.5 1189.78125 2058.769531 1188.726562 C 2060.039062 1187.675781 2060.75 1186.125 2060.75 1184.476562 L 2060.75 656.457031 C 2060.75 653.792969 2058.84375 651.496094 2056.21875 651.027344 L 1501.5 549.789062 C 1501.167969 549.722656 1500.839844 549.699219 1500.507812 549.699219 Z M 2055.242188 1196.640625 C 2054.507812 1196.640625 2053.773438 1196.578125 2053.050781 1196.4375 L 1498.328125 1095.199219 C 1492.542969 1094.160156 1488.347656 1089.125 1488.347656 1083.238281 L 1488.347656 555.230469 C 1488.347656 551.613281 1489.933594 548.203125 1492.722656 545.882812 C 1495.5 543.574219 1499.128906 542.609375 1502.691406 543.269531 L 2057.414062 644.496094 C 2063.195312 645.546875 2067.394531 650.582031 2067.394531 656.457031 L 2067.394531 1184.476562 C 2067.394531 1188.09375 2065.796875 1191.492188 2063.019531 1193.8125 C 2060.8125 1195.652344 2058.058594 1196.640625 2055.242188 1196.640625" fill="inherit"/></g><g id="change1_16"><path d="M 1797.136719 778.175781 L 1747.710938 769.152344 C 1742.695312 768.242188 1739.042969 763.867188 1739.042969 758.773438 L 1739.042969 712.953125 C 1739.042969 706.359375 1745.015625 701.375 1751.507812 702.5625 L 1800.921875 711.578125 C 1805.941406 712.5 1809.59375 716.863281 1809.59375 721.96875 L 1809.59375 767.785156 C 1809.59375 774.378906 1803.609375 779.367188 1797.136719 778.175781" fill="#caddff"/></g><g id="change1_17"><path d="M 1888.230469 794.820312 L 1838.8125 785.796875 C 1833.796875 784.886719 1830.148438 780.511719 1830.148438 775.40625 L 1830.148438 729.589844 C 1830.148438 723.003906 1836.128906 718.011719 1842.601562 719.203125 L 1892.019531 728.214844 C 1897.042969 729.136719 1900.695312 733.507812 1900.695312 738.605469 L 1900.695312 784.429688 C 1900.695312 791.019531 1894.722656 796 1888.230469 794.820312" fill="#caddff"/></g><g id="change3_4"><path d="M 1979.316406 811.472656 L 1929.898438 802.453125 C 1924.875 801.539062 1921.234375 797.164062 1921.234375 792.066406 L 1921.234375 746.246094 C 1921.234375 739.660156 1927.210938 734.671875 1933.6875 735.859375 L 1983.101562 744.875 C 1988.125 745.792969 1991.777344 750.167969 1991.777344 755.261719 L 1991.777344 801.085938 C 1991.777344 807.671875 1985.804688 812.65625 1979.316406 811.472656" fill="#99b9ff"/></g><g id="change3_5"><path d="M 1614.953125 835.179688 L 1565.535156 826.160156 C 1560.515625 825.242188 1556.871094 820.871094 1556.871094 815.765625 L 1556.871094 769.949219 C 1556.871094 763.355469 1562.84375 758.378906 1569.339844 759.5625 L 1618.757812 768.582031 C 1623.78125 769.5 1627.414062 773.871094 1627.414062 778.96875 L 1627.414062 824.785156 C 1627.414062 831.375 1621.449219 836.367188 1614.953125 835.179688" fill="#99b9ff"/></g><g id="change1_18"><path d="M 1706.050781 851.835938 L 1656.632812 842.816406 C 1651.605469 841.898438 1647.953125 837.527344 1647.953125 832.425781 L 1647.953125 786.613281 C 1647.953125 780.019531 1653.933594 775.035156 1660.421875 776.222656 L 1709.839844 785.238281 C 1714.855469 786.160156 1718.496094 790.527344 1718.496094 795.628906 L 1718.496094 841.441406 C 1718.496094 848.035156 1712.527344 853.019531 1706.050781 851.835938" fill="#caddff"/></g><g id="change3_6"><path d="M 1797.136719 868.492188 L 1747.710938 859.476562 C 1742.695312 858.554688 1739.042969 854.179688 1739.042969 849.085938 L 1739.042969 803.265625 C 1739.042969 796.671875 1745.015625 791.6875 1751.507812 792.875 L 1800.921875 801.890625 C 1805.941406 802.8125 1809.59375 807.1875 1809.59375 812.28125 L 1809.59375 858.097656 C 1809.59375 864.695312 1803.609375 869.679688 1797.136719 868.492188" fill="#99b9ff"/></g><g id="change5_10"><path d="M 1749.605469 796.015625 C 1747.925781 796.015625 1746.28125 796.605469 1744.957031 797.707031 C 1743.3125 799.085938 1742.367188 801.109375 1742.367188 803.269531 L 1742.367188 849.078125 C 1742.367188 852.582031 1744.855469 855.585938 1748.304688 856.210938 L 1797.71875 865.230469 C 1799.855469 865.617188 1802.015625 865.050781 1803.660156 863.671875 C 1805.316406 862.28125 1806.273438 860.257812 1806.273438 858.101562 L 1806.273438 812.289062 C 1806.273438 808.785156 1803.769531 805.792969 1800.324219 805.160156 L 1750.90625 796.140625 C 1750.472656 796.0625 1750.027344 796.015625 1749.605469 796.015625 Z M 1799.042969 871.980469 C 1798.199219 871.980469 1797.375 871.914062 1796.53125 871.757812 L 1747.113281 862.738281 C 1740.507812 861.535156 1735.726562 855.785156 1735.726562 849.078125 L 1735.726562 803.269531 C 1735.726562 799.140625 1737.539062 795.25 1740.707031 792.613281 C 1743.890625 789.964844 1748.039062 788.875 1752.097656 789.609375 L 1801.523438 798.628906 C 1808.109375 799.84375 1812.902344 805.582031 1812.902344 812.289062 L 1812.902344 858.101562 C 1812.902344 862.238281 1811.078125 866.117188 1807.910156 868.765625 C 1805.394531 870.867188 1802.257812 871.980469 1799.042969 871.980469" fill="inherit"/></g><g id="change1_19"><path d="M 1888.230469 885.132812 L 1838.8125 876.121094 C 1833.796875 875.199219 1830.148438 870.824219 1830.148438 865.730469 L 1830.148438 819.914062 C 1830.148438 813.316406 1836.128906 808.335938 1842.601562 809.511719 L 1892.019531 818.539062 C 1897.042969 819.449219 1900.695312 823.820312 1900.695312 828.929688 L 1900.695312 874.742188 C 1900.695312 881.332031 1894.722656 886.324219 1888.230469 885.132812" fill="#caddff"/></g><g id="change3_7"><path d="M 1979.316406 901.789062 L 1929.898438 892.769531 C 1924.875 891.851562 1921.234375 887.476562 1921.234375 882.382812 L 1921.234375 836.558594 C 1921.234375 829.972656 1927.210938 824.988281 1933.6875 826.171875 L 1983.101562 835.191406 C 1988.125 836.105469 1991.777344 840.480469 1991.777344 845.589844 L 1991.777344 891.402344 C 1991.777344 897.988281 1985.804688 902.972656 1979.316406 901.789062" fill="#99b9ff"/></g><g id="change1_20"><path d="M 1614.957031 925.496094 L 1565.539062 916.480469 C 1560.511719 915.558594 1556.875 911.191406 1556.875 906.085938 L 1556.875 860.273438 C 1556.875 853.679688 1562.84375 848.695312 1569.335938 849.882812 L 1618.753906 858.898438 C 1623.777344 859.808594 1627.414062 864.1875 1627.414062 869.292969 L 1627.414062 915.101562 C 1627.414062 921.699219 1621.449219 926.683594 1614.957031 925.496094" fill="#caddff"/></g><g id="change1_21"><path d="M 1706.042969 942.160156 L 1656.628906 933.144531 C 1651.597656 932.230469 1647.949219 927.851562 1647.949219 922.75 L 1647.949219 876.929688 C 1647.949219 870.339844 1653.929688 865.355469 1660.410156 866.546875 L 1709.835938 875.558594 C 1714.855469 876.476562 1718.492188 880.851562 1718.492188 885.957031 L 1718.492188 931.765625 C 1718.492188 938.363281 1712.527344 943.339844 1706.042969 942.160156" fill="#caddff"/></g><g id="change1_22"><path d="M 1797.136719 958.816406 L 1747.710938 949.789062 C 1742.695312 948.878906 1739.042969 944.503906 1739.042969 939.398438 L 1739.042969 893.582031 C 1739.042969 886.984375 1745.015625 882.011719 1751.507812 883.1875 L 1800.921875 892.214844 C 1805.941406 893.125 1809.59375 897.5 1809.59375 902.605469 L 1809.59375 948.421875 C 1809.59375 955.007812 1803.609375 959.992188 1797.136719 958.816406" fill="#caddff"/></g><g id="change1_23"><path d="M 1888.230469 975.457031 L 1838.8125 966.429688 C 1833.796875 965.523438 1830.148438 961.148438 1830.148438 956.042969 L 1830.148438 910.226562 C 1830.148438 903.625 1836.128906 898.648438 1842.601562 899.835938 L 1892.019531 908.851562 C 1897.042969 909.773438 1900.695312 914.144531 1900.695312 919.242188 L 1900.695312 965.054688 C 1900.695312 971.65625 1894.722656 976.632812 1888.230469 975.457031" fill="#caddff"/></g><g id="change2_2"><path d="M 1979.316406 992.101562 L 1929.898438 983.082031 C 1924.875 982.167969 1921.234375 977.804688 1921.234375 972.695312 L 1921.234375 926.886719 C 1921.234375 920.289062 1927.210938 915.300781 1933.6875 916.488281 L 1983.101562 925.503906 C 1988.125 926.421875 1991.777344 930.796875 1991.777344 935.902344 L 1991.777344 981.714844 C 1991.777344 988.3125 1985.804688 993.285156 1979.316406 992.101562" fill="#5479f7"/></g><g id="change5_11"><path d="M 1979.925781 988.835938 C 1982.03125 989.230469 1984.199219 988.652344 1985.863281 987.28125 C 1987.515625 985.898438 1988.46875 983.867188 1988.46875 981.714844 L 1988.46875 935.898438 C 1988.46875 932.398438 1985.960938 929.402344 1982.519531 928.765625 L 1933.109375 919.742188 C 1930.980469 919.363281 1928.8125 919.925781 1927.160156 921.308594 C 1925.507812 922.691406 1924.554688 924.726562 1924.554688 926.878906 L 1924.554688 972.691406 C 1924.554688 976.195312 1927.050781 979.191406 1930.5 979.816406 Z M 1981.234375 995.59375 C 1980.402344 995.59375 1979.558594 995.519531 1978.738281 995.363281 L 1929.3125 986.351562 C 1922.71875 985.140625 1917.917969 979.402344 1917.917969 972.691406 L 1917.917969 926.878906 C 1917.917969 922.742188 1919.742188 918.863281 1922.914062 916.21875 C 1926.082031 913.574219 1930.21875 912.484375 1934.296875 913.21875 L 1983.707031 922.238281 C 1990.316406 923.453125 1995.105469 929.191406 1995.105469 935.898438 L 1995.105469 981.714844 C 1995.105469 985.839844 1993.28125 989.730469 1990.109375 992.375 C 1987.589844 994.46875 1984.453125 995.59375 1981.234375 995.59375" fill="inherit"/></g><g id="change1_24"><path d="M 1614.949219 1015.820312 L 1565.53125 1006.800781 C 1560.511719 1005.878906 1556.871094 1001.511719 1556.871094 996.410156 L 1556.871094 950.589844 C 1556.871094 944 1562.839844 939.019531 1569.328125 940.199219 L 1618.75 949.21875 C 1623.769531 950.140625 1627.410156 954.511719 1627.410156 959.609375 L 1627.410156 1005.429688 C 1627.410156 1012.019531 1621.441406 1017 1614.949219 1015.820312" fill="#caddff"/></g><g id="change1_25"><path d="M 1706.042969 1032.480469 L 1656.628906 1023.457031 C 1651.597656 1022.539062 1647.949219 1018.164062 1647.949219 1013.0625 L 1647.949219 967.253906 C 1647.949219 960.652344 1653.929688 955.675781 1660.410156 956.855469 L 1709.835938 965.882812 C 1714.855469 966.796875 1718.492188 971.164062 1718.492188 976.265625 L 1718.492188 1022.085938 C 1718.492188 1028.675781 1712.527344 1033.652344 1706.042969 1032.480469" fill="#caddff"/></g><g id="change3_8"><path d="M 1797.136719 1049.128906 L 1747.710938 1040.101562 C 1742.695312 1039.191406 1739.042969 1034.816406 1739.042969 1029.710938 L 1739.042969 983.90625 C 1739.042969 977.308594 1745.015625 972.324219 1751.507812 973.511719 L 1800.921875 982.527344 C 1805.941406 983.4375 1809.59375 987.8125 1809.59375 992.917969 L 1809.59375 1038.738281 C 1809.59375 1045.320312 1803.609375 1050.304688 1797.136719 1049.128906" fill="#99b9ff"/></g><g id="change1_26"><path d="M 1888.230469 1065.769531 L 1838.8125 1056.742188 C 1833.796875 1055.832031 1830.148438 1051.460938 1830.148438 1046.355469 L 1830.148438 1000.550781 C 1830.148438 993.949219 1836.128906 988.972656 1842.601562 990.148438 L 1892.019531 999.175781 C 1897.042969 1000.085938 1900.695312 1004.457031 1900.695312 1009.5625 L 1900.695312 1055.378906 C 1900.695312 1061.96875 1894.722656 1066.957031 1888.230469 1065.769531" fill="#caddff"/></g><g id="change4_3"><path d="M 2051.421875 1797.25 L 1766.9375 1742.757812 C 1762.777344 1741.957031 1759.753906 1738.300781 1759.765625 1734.039062 L 1761.550781 1213.113281 C 1761.574219 1207.621094 1766.535156 1203.472656 1771.933594 1204.421875 L 2054.621094 1254.246094 C 2058.859375 1255 2061.933594 1258.667969 2061.933594 1262.957031 L 2061.933594 1788.558594 C 2061.933594 1794.109375 2056.875 1798.289062 2051.421875 1797.25" fill="#fff"/></g><g id="change5_12"><path d="M 2052.027344 1793.992188 C 2053.648438 1794.304688 2055.320312 1793.871094 2056.601562 1792.824219 C 2057.867188 1791.773438 2058.601562 1790.210938 2058.601562 1788.5625 L 2058.601562 1262.964844 C 2058.601562 1260.285156 2056.675781 1257.996094 2054.03125 1257.523438 L 1771.355469 1207.703125 C 1769.75 1207.425781 1768.101562 1207.867188 1766.847656 1208.90625 C 1765.59375 1209.957031 1764.871094 1211.492188 1764.859375 1213.125 L 1763.070312 1734.050781 C 1763.058594 1736.714844 1764.957031 1739.003906 1767.570312 1739.503906 Z M 2053.09375 1800.722656 C 2052.320312 1800.722656 2051.558594 1800.652344 2050.785156 1800.503906 L 1766.316406 1746.023438 C 1760.574219 1744.921875 1756.417969 1739.882812 1756.445312 1734.03125 L 1758.230469 1213.101562 C 1758.242188 1209.515625 1759.839844 1206.121094 1762.589844 1203.824219 C 1765.351562 1201.519531 1768.949219 1200.542969 1772.496094 1201.179688 L 2055.195312 1250.996094 C 2061.011719 1252.015625 2065.242188 1257.054688 2065.242188 1262.964844 L 2065.242188 1788.5625 C 2065.242188 1792.203125 2063.632812 1795.613281 2060.820312 1797.933594 C 2058.628906 1799.753906 2055.890625 1800.722656 2053.09375 1800.722656" fill="inherit"/></g><g id="change1_27"><path d="M 1996.765625 1632.402344 L 1811.777344 1598.511719 C 1798.855469 1596.152344 1789.460938 1584.882812 1789.460938 1571.742188 C 1789.460938 1554.742188 1804.867188 1541.902344 1821.585938 1544.960938 L 2006.574219 1578.851562 C 2019.507812 1581.222656 2028.894531 1592.484375 2028.894531 1605.621094 C 2028.894531 1622.621094 2013.484375 1635.460938 1996.765625 1632.402344" fill="#caddff"/></g><g id="change1_28"><path d="M 1993.144531 1721.878906 L 1808.160156 1687.988281 C 1795.238281 1685.628906 1785.84375 1674.359375 1785.84375 1661.21875 C 1785.84375 1644.21875 1801.253906 1631.378906 1817.964844 1634.4375 L 2002.960938 1668.328125 C 2015.882812 1670.699219 2025.273438 1681.957031 2025.273438 1695.097656 C 2025.273438 1712.097656 2009.867188 1724.9375 1993.144531 1721.878906" fill="#caddff"/></g><g id="change4_4"><path d="M 1811.902344 1415.398438 C 1811.902344 1359.136719 1857.476562 1313.527344 1913.6875 1313.527344 C 1969.898438 1313.527344 2015.460938 1359.136719 2015.460938 1415.398438 C 2015.460938 1471.660156 1969.898438 1517.257812 1913.6875 1517.257812 C 1857.476562 1517.257812 1811.902344 1471.660156 1811.902344 1415.398438" fill="#fff"/></g><g id="change5_13"><path d="M 1913.6875 1520.574219 C 1855.738281 1520.574219 1808.597656 1473.386719 1808.597656 1415.394531 C 1808.597656 1402.996094 1810.730469 1390.855469 1814.953125 1379.304688 C 1815.570312 1377.585938 1817.480469 1376.695312 1819.199219 1377.328125 C 1820.921875 1377.957031 1821.800781 1379.855469 1821.183594 1381.574219 C 1817.230469 1392.394531 1815.222656 1403.765625 1815.222656 1415.394531 C 1815.222656 1469.734375 1859.402344 1513.945312 1913.6875 1513.945312 C 1967.984375 1513.945312 2012.160156 1469.734375 2012.160156 1415.394531 C 2012.160156 1361.054688 1967.984375 1316.84375 1913.6875 1316.84375 C 1884.136719 1316.84375 1856.40625 1329.957031 1837.617188 1352.824219 C 1836.453125 1354.234375 1834.371094 1354.445312 1832.949219 1353.273438 C 1831.523438 1352.117188 1831.324219 1350.027344 1832.488281 1348.617188 C 1852.542969 1324.203125 1882.140625 1310.214844 1913.6875 1310.214844 C 1971.636719 1310.214844 2018.789062 1357.394531 2018.789062 1415.394531 C 2018.789062 1473.386719 1971.636719 1520.574219 1913.6875 1520.574219" fill="inherit"/></g><g id="change3_9"><path d="M 1843.863281 1489.480469 C 1862.089844 1506.691406 1886.648438 1517.261719 1913.675781 1517.261719 C 1940.714844 1517.261719 1965.28125 1506.691406 1983.5 1489.480469 C 1962.421875 1482.941406 1938.730469 1479.269531 1913.675781 1479.269531 C 1888.644531 1479.269531 1864.949219 1482.941406 1843.863281 1489.480469" fill="#99b9ff"/></g><g id="change4_5"><path d="M 1914.285156 1496.484375 C 1905.414062 1496.484375 1898.214844 1489.285156 1898.214844 1480.402344 L 1898.214844 1398.425781 L 1930.34375 1398.425781 L 1930.34375 1480.402344 C 1930.34375 1489.285156 1923.15625 1496.484375 1914.285156 1496.484375" fill="#fff"/></g><g id="change5_14"><path d="M 1976.496094 1428.324219 C 1974.476562 1402.867188 1985.699219 1386.964844 1960.542969 1358.195312 C 1934.5 1328.40625 1912.128906 1348.375 1912.128906 1348.375 C 1912.128906 1348.375 1893.503906 1332.894531 1869.050781 1365.265625 C 1847.480469 1393.835938 1875.113281 1419.4375 1865.824219 1437.214844 C 1856.535156 1455.007812 1825.035156 1464.707031 1825.035156 1464.707031 C 1825.035156 1464.707031 1835.136719 1484.917969 1847.652344 1493.816406 L 1980.539062 1493.816406 C 1980.539062 1493.816406 2007.996094 1463.898438 2007.996094 1455.417969 C 2007.996094 1455.417969 1978.519531 1453.796875 1976.496094 1428.324219" fill="inherit"/></g><g id="change3_10"><path d="M 1843.863281 1489.480469 C 1862.089844 1506.691406 1886.648438 1517.261719 1913.675781 1517.261719 C 1940.714844 1517.261719 1965.28125 1506.691406 1983.5 1489.480469 C 1962.421875 1482.941406 1938.730469 1479.269531 1913.675781 1479.269531 C 1888.644531 1479.269531 1864.949219 1482.941406 1843.863281 1489.480469" fill="#99b9ff"/></g><g id="change5_15"><path d="M 1850.523438 1490.972656 C 1868.226562 1505.832031 1890.433594 1513.953125 1913.675781 1513.953125 C 1936.921875 1513.953125 1959.128906 1505.832031 1976.828125 1490.972656 C 1956.917969 1485.402344 1935.699219 1482.582031 1913.675781 1482.582031 C 1891.640625 1482.582031 1870.4375 1485.402344 1850.523438 1490.972656 Z M 1913.675781 1520.582031 C 1886.769531 1520.582031 1861.171875 1510.394531 1841.589844 1491.894531 L 1837.449219 1487.992188 L 1842.871094 1486.3125 C 1865.054688 1479.433594 1888.871094 1475.953125 1913.675781 1475.953125 C 1938.484375 1475.953125 1962.300781 1479.433594 1984.484375 1486.3125 L 1989.902344 1487.992188 L 1985.777344 1491.894531 C 1966.183594 1510.394531 1940.582031 1520.582031 1913.675781 1520.582031" fill="inherit"/></g><g id="change4_6"><path d="M 1915.847656 1371.738281 L 1914.75 1371.738281 L 1882.050781 1404.628906 L 1882.050781 1422.667969 C 1882.050781 1434.714844 1888.550781 1445.21875 1898.226562 1450.90625 L 1898.226562 1480.398438 C 1898.226562 1489.277344 1905.429688 1496.476562 1914.296875 1496.476562 C 1923.160156 1496.476562 1930.355469 1489.277344 1930.355469 1480.398438 L 1930.355469 1451.457031 C 1940.558594 1445.917969 1947.476562 1435.109375 1947.476562 1422.667969 L 1947.476562 1403.386719 C 1947.476562 1385.90625 1933.316406 1371.738281 1915.847656 1371.738281" fill="#fff"/></g><g id="change5_16"><path d="M 1914.285156 1499.800781 C 1903.597656 1499.800781 1894.914062 1491.101562 1894.914062 1480.398438 L 1894.914062 1451.808594 C 1894.914062 1449.980469 1896.382812 1448.492188 1898.234375 1448.492188 C 1900.0625 1448.492188 1901.542969 1449.980469 1901.542969 1451.808594 L 1901.542969 1480.398438 C 1901.542969 1487.441406 1907.261719 1493.160156 1914.285156 1493.160156 C 1921.320312 1493.160156 1927.039062 1487.441406 1927.039062 1480.398438 L 1927.039062 1452.300781 C 1927.039062 1450.472656 1928.519531 1448.980469 1930.347656 1448.980469 C 1932.175781 1448.980469 1933.667969 1450.472656 1933.667969 1452.300781 L 1933.667969 1480.398438 C 1933.667969 1491.101562 1924.972656 1499.800781 1914.285156 1499.800781" fill="inherit"/></g><g id="change5_17"><path d="M 1914.75 1458.734375 C 1912.929688 1458.734375 1911.433594 1457.253906 1911.433594 1455.421875 C 1911.433594 1453.582031 1912.929688 1452.101562 1914.75 1452.101562 C 1930.964844 1452.101562 1944.152344 1438.902344 1944.152344 1422.671875 L 1944.152344 1403.394531 C 1944.152344 1388.214844 1932.316406 1375.792969 1917.179688 1375.09375 L 1885.355469 1406.574219 L 1885.355469 1422.671875 C 1885.355469 1434.183594 1892.117188 1444.703125 1902.589844 1449.472656 C 1904.253906 1450.234375 1904.984375 1452.203125 1904.226562 1453.863281 C 1903.460938 1455.535156 1901.5 1456.273438 1899.835938 1455.511719 C 1887.007812 1449.664062 1878.710938 1436.773438 1878.710938 1422.671875 L 1878.710938 1405.195312 C 1878.710938 1404.304688 1879.070312 1403.453125 1879.707031 1402.832031 L 1913.515625 1369.382812 C 1914.136719 1368.773438 1914.976562 1368.433594 1915.847656 1368.433594 C 1916.363281 1368.433594 1916.878906 1368.445312 1917.394531 1368.464844 C 1936.109375 1369.285156 1950.785156 1384.625 1950.785156 1403.394531 L 1950.785156 1422.671875 C 1950.785156 1442.5625 1934.628906 1458.734375 1914.75 1458.734375" fill="inherit"/></g><g id="change4_7"><path d="M 993.640625 1470.066406 L 993.640625 1068.769531 C 993.640625 1063.242188 998.652344 1059.066406 1004.09375 1060.0625 L 1685.921875 1185.761719 C 1690.109375 1186.550781 1693.164062 1190.207031 1693.164062 1194.46875 L 1693.164062 1720.199219 C 1693.164062 1725.730469 1688.15625 1729.898438 1682.710938 1728.898438 L 1000.882812 1603.199219 C 996.6875 1602.417969 993.640625 1598.769531 993.640625 1594.5 L 993.640625 1470.066406" fill="#fff"/></g><g id="change2_3"><path d="M 1442.699219 1486.621094 L 1047.050781 1414.429688 L 1047.050781 1347.230469 L 1442.699219 1419.421875 L 1442.699219 1486.621094" fill="#5479f7"/></g><g id="change5_18"><path d="M 1623.324219 1524.175781 C 1622.582031 1524.175781 1621.832031 1524.105469 1621.078125 1523.976562 L 1327.945312 1469.179688 C 1326.140625 1468.835938 1324.957031 1467.101562 1325.296875 1465.304688 C 1325.628906 1463.507812 1327.375 1462.324219 1329.160156 1462.65625 L 1622.292969 1517.445312 C 1623.929688 1517.753906 1625.574219 1517.328125 1626.847656 1516.265625 C 1628.113281 1515.214844 1628.835938 1513.667969 1628.835938 1512.015625 L 1628.835938 1462.828125 C 1628.835938 1460.15625 1626.9375 1457.878906 1624.320312 1457.386719 L 1323.601562 1401.753906 C 1321.804688 1401.421875 1320.613281 1399.695312 1320.953125 1397.898438 C 1321.285156 1396.09375 1323.019531 1394.910156 1324.816406 1395.230469 L 1625.523438 1450.867188 C 1631.28125 1451.941406 1635.476562 1456.96875 1635.476562 1462.828125 L 1635.476562 1512.015625 C 1635.476562 1515.644531 1633.882812 1519.054688 1631.082031 1521.375 C 1628.875 1523.207031 1626.136719 1524.175781 1623.324219 1524.175781" fill="inherit"/></g><g id="change5_19"><path d="M 1272.828125 1459.558594 C 1272.628906 1459.558594 1272.429688 1459.539062 1272.21875 1459.511719 L 1053.679688 1419.03125 C 1047.910156 1417.960938 1043.730469 1412.929688 1043.730469 1407.070312 L 1043.730469 1357.859375 C 1043.730469 1354.238281 1045.328125 1350.828125 1048.109375 1348.511719 C 1050.898438 1346.191406 1054.550781 1345.238281 1058.101562 1345.898438 L 1288.878906 1388.589844 C 1290.679688 1388.929688 1291.871094 1390.660156 1291.53125 1392.460938 C 1291.199219 1394.261719 1289.460938 1395.449219 1287.671875 1395.121094 L 1056.898438 1352.421875 C 1055.269531 1352.121094 1053.621094 1352.558594 1052.359375 1353.609375 C 1051.089844 1354.660156 1050.359375 1356.210938 1050.359375 1357.859375 L 1050.359375 1407.070312 C 1050.359375 1409.738281 1052.269531 1412.019531 1054.890625 1412.511719 L 1273.429688 1452.980469 C 1275.230469 1453.320312 1276.421875 1455.050781 1276.089844 1456.851562 C 1275.789062 1458.449219 1274.398438 1459.558594 1272.828125 1459.558594" fill="inherit"/></g><g id="change1_29"><path d="M 1598.121094 1345.308594 L 1329.597656 1295.289062 C 1316.675781 1292.929688 1307.285156 1281.65625 1307.285156 1268.515625 C 1307.285156 1251.511719 1322.6875 1238.679688 1339.402344 1241.742188 L 1607.929688 1291.757812 C 1620.851562 1294.128906 1630.246094 1305.402344 1630.246094 1318.53125 C 1630.246094 1335.535156 1614.84375 1348.378906 1598.121094 1345.308594" fill="#caddff"/></g><g id="change2_4"><path d="M 1048.101562 1288.140625 L 1048.101562 1258.511719 L 1099.980469 1206.671875 C 1104.898438 1201.761719 1112.871094 1201.761719 1117.789062 1206.679688 L 1153.328125 1242.210938 C 1158.050781 1246.929688 1165.640625 1247.140625 1170.621094 1242.691406 L 1173.859375 1239.800781 C 1178.851562 1235.339844 1186.46875 1235.570312 1191.179688 1240.328125 L 1263.839844 1313.578125 L 1264.109375 1323.179688 C 1264.460938 1335.429688 1253.328125 1344.828125 1241.320312 1342.421875 L 1063.429688 1306.828125 C 1054.519531 1305.050781 1048.101562 1297.230469 1048.101562 1288.140625" fill="#5479f7"/></g><g id="change5_20"><path d="M 1243.230469 1338.488281 C 1247.71875 1339.390625 1252.328125 1338.230469 1255.878906 1335.328125 C 1259.421875 1332.421875 1261.460938 1328.128906 1261.460938 1323.539062 L 1261.460938 1184.601562 C 1261.460938 1177.210938 1256.171875 1170.898438 1248.898438 1169.601562 L 1070.050781 1137.640625 C 1065.621094 1136.851562 1061.101562 1138.039062 1057.648438 1140.898438 C 1054.191406 1143.769531 1052.171875 1147.980469 1052.128906 1152.46875 L 1050.679688 1287.328125 C 1050.601562 1294.648438 1055.75 1301 1062.929688 1302.441406 Z M 1246.238281 1345.421875 C 1244.808594 1345.421875 1243.371094 1345.28125 1241.929688 1344.988281 L 1061.628906 1308.941406 C 1051.320312 1306.878906 1043.929688 1297.761719 1044.039062 1287.261719 L 1045.488281 1152.398438 C 1045.558594 1145.960938 1048.449219 1139.898438 1053.410156 1135.789062 C 1058.378906 1131.679688 1064.851562 1129.96875 1071.210938 1131.109375 L 1250.058594 1163.070312 C 1260.511719 1164.929688 1268.089844 1173.988281 1268.089844 1184.601562 L 1268.089844 1323.539062 C 1268.089844 1330.121094 1265.171875 1336.289062 1260.078125 1340.460938 C 1256.128906 1343.699219 1251.25 1345.421875 1246.238281 1345.421875" fill="inherit"/></g><g id="change3_11"><path d="M 1238.269531 1210.378906 C 1238.269531 1221.390625 1229.339844 1230.320312 1218.328125 1230.320312 C 1207.308594 1230.320312 1198.378906 1221.390625 1198.378906 1210.378906 C 1198.378906 1199.359375 1207.308594 1190.429688 1218.328125 1190.429688 C 1229.339844 1190.429688 1238.269531 1199.359375 1238.269531 1210.378906" fill="#99b9ff"/></g><g id="change5_21"><path d="M 1693.167969 1685.167969 C 1691.335938 1685.167969 1689.847656 1683.675781 1689.847656 1681.847656 L 1689.847656 1198.117188 C 1689.847656 1193.328125 1686.433594 1189.230469 1681.738281 1188.375 L 1008.664062 1064.28125 C 1005.753906 1063.742188 1002.792969 1064.523438 1000.535156 1066.40625 C 998.261719 1068.289062 996.960938 1071.078125 996.960938 1074.023438 L 996.960938 1470.066406 C 996.960938 1471.90625 995.476562 1473.386719 993.644531 1473.386719 C 991.816406 1473.386719 990.328125 1471.90625 990.328125 1470.066406 L 990.328125 1074.023438 C 990.328125 1069.089844 992.5 1064.460938 996.285156 1061.316406 C 1000.074219 1058.152344 1005.015625 1056.863281 1009.863281 1057.757812 L 1682.945312 1181.839844 C 1690.785156 1183.296875 1696.488281 1190.132812 1696.488281 1198.117188 L 1696.488281 1681.847656 C 1696.488281 1683.675781 1695 1685.167969 1693.167969 1685.167969" fill="inherit"/></g><g id="change4_8"><path d="M 930.625 1595.109375 L 452.953125 1499.511719 L 452.953125 955.789062 L 930.625 1051.390625 L 930.625 1595.109375" fill="#fff"/></g><g id="change5_22"><path d="M 930.625 1459.46875 C 928.792969 1459.46875 927.308594 1457.988281 927.308594 1456.160156 L 927.308594 1058.640625 C 927.308594 1056.019531 925.4375 1053.730469 922.863281 1053.21875 L 462.882812 961.160156 C 461.25 960.839844 459.578125 961.25 458.292969 962.308594 C 457.007812 963.359375 456.269531 964.921875 456.269531 966.578125 L 456.269531 1026.171875 C 456.269531 1028 454.785156 1029.480469 452.953125 1029.480469 C 451.121094 1029.480469 449.636719 1028 449.636719 1026.171875 L 449.636719 966.578125 C 449.636719 962.921875 451.261719 959.5 454.089844 957.179688 C 456.921875 954.859375 460.601562 953.941406 464.1875 954.660156 L 924.164062 1046.71875 C 929.828125 1047.851562 933.941406 1052.859375 933.941406 1058.640625 L 933.941406 1456.160156 C 933.941406 1457.988281 932.453125 1459.46875 930.625 1459.46875" fill="inherit"/></g><g id="change5_23"><path d="M 452.953125 1446.28125 C 451.121094 1446.28125 449.636719 1444.789062 449.636719 1442.960938 L 449.636719 1284.988281 C 449.636719 1283.160156 451.121094 1281.671875 452.953125 1281.671875 C 454.785156 1281.671875 456.269531 1283.160156 456.269531 1284.988281 L 456.269531 1442.960938 C 456.269531 1444.789062 454.785156 1446.28125 452.953125 1446.28125" fill="inherit"/></g><g id="change1_30"><path d="M 872.496094 1345.378906 C 872.496094 1364.410156 857.074219 1379.828125 838.050781 1379.828125 C 819.027344 1379.828125 803.605469 1364.410156 803.605469 1345.378906 C 803.605469 1326.359375 819.027344 1310.941406 838.050781 1310.941406 C 857.074219 1310.941406 872.496094 1326.359375 872.496094 1345.378906" fill="#caddff"/></g><g id="change4_9"><path d="M 1554.582031 2148.070312 L 1400.089844 2118.808594 C 1395.269531 2117.898438 1392.472656 2114.117188 1392.03125 2110.089844 C 1391.75 2107.367188 1391.863281 2064.328125 1391.964844 2039.347656 C 1392.007812 2028.519531 1398.03125 2018.628906 1407.636719 2013.617188 C 1458.742188 1986.96875 1620.3125 1902.808594 1662.195312 1881.847656 C 1668.441406 1878.71875 1675.59375 1877.949219 1682.371094 1879.65625 L 1843.894531 1920.476562 C 1844.175781 1920.398438 1844.457031 1920.585938 1844.457031 1920.878906 C 1844.425781 1928.066406 1844.140625 2002.648438 1844.390625 2006.660156 C 1844.605469 2010.347656 1842.851562 2014.167969 1838.855469 2016.148438 L 1579.21875 2144.6875 C 1571.59375 2148.457031 1562.957031 2149.648438 1554.582031 2148.070312" fill="#fff"/></g><g id="change5_24"><path d="M 1841.128906 1920.871094 C 1841.128906 1920.878906 1841.128906 1920.878906 1841.128906 1920.890625 C 1841.128906 1920.878906 1841.128906 1920.878906 1841.128906 1920.871094 Z M 1555.199219 2144.808594 C 1562.804688 2146.238281 1570.8125 2145.148438 1577.75 2141.707031 L 1837.378906 2013.179688 C 1839.847656 2011.949219 1841.234375 2009.589844 1841.074219 2006.859375 C 1840.835938 2003.039062 1841.0625 1940.929688 1841.121094 1923.199219 L 1681.566406 1882.878906 C 1675.558594 1881.359375 1669.199219 1882.050781 1663.675781 1884.808594 C 1621.828125 1905.757812 1458.296875 1990.949219 1409.160156 2016.558594 C 1400.632812 2021.007812 1395.316406 2029.75 1395.273438 2039.371094 C 1395.113281 2081.328125 1395.136719 2107.640625 1395.328125 2109.738281 C 1395.578125 2112.101562 1397.132812 2114.871094 1400.691406 2115.550781 Z M 1561.796875 2152.058594 C 1559.179688 2152.058594 1556.546875 2151.808594 1553.972656 2151.320312 L 1399.46875 2122.070312 C 1393.59375 2120.949219 1389.375 2116.390625 1388.730469 2110.4375 C 1388.4375 2107.691406 1388.527344 2070.257812 1388.640625 2039.339844 C 1388.695312 2027.25 1395.386719 2016.269531 1406.097656 2010.679688 C 1455.234375 1985.058594 1618.824219 1899.847656 1660.71875 1878.878906 C 1667.667969 1875.398438 1675.636719 1874.539062 1683.1875 1876.449219 L 1844.292969 1917.160156 C 1845.019531 1917.210938 1845.734375 1917.46875 1846.324219 1917.929688 C 1847.242188 1918.648438 1847.773438 1919.730469 1847.761719 1920.910156 C 1847.648438 1951.1875 1847.503906 2003.300781 1847.695312 2006.460938 C 1848.011719 2011.859375 1845.191406 2016.710938 1840.335938 2019.117188 L 1580.695312 2147.660156 C 1574.835938 2150.558594 1568.316406 2152.058594 1561.796875 2152.058594" fill="inherit"/></g><g id="change4_10"><path d="M 1555.054688 2058.871094 L 1400.074219 2029.519531 C 1390.691406 2027.75 1388.945312 2015.0625 1397.515625 2010.820312 L 1665.898438 1877.941406 C 1667.847656 1876.980469 1670.046875 1876.679688 1672.167969 1877.078125 L 1836.289062 1908.160156 C 1845.664062 1909.941406 1847.410156 1922.628906 1838.851562 1926.859375 L 1578.785156 2055.621094 C 1571.441406 2059.25 1563.113281 2060.402344 1555.054688 2058.871094" fill="#fff"/></g><g id="change5_25"><path d="M 1555.683594 2055.609375 C 1562.984375 2057 1570.660156 2055.941406 1577.308594 2052.648438 L 1837.382812 1923.890625 C 1840.546875 1922.328125 1841.328125 1919.328125 1841.011719 1917.039062 C 1840.707031 1914.75 1839.128906 1912.070312 1835.671875 1911.417969 L 1671.5625 1880.339844 C 1670.15625 1880.078125 1668.660156 1880.28125 1667.367188 1880.917969 L 1398.980469 2013.789062 C 1395.828125 2015.359375 1395.042969 2018.359375 1395.351562 2020.640625 C 1395.65625 2022.929688 1397.234375 2025.609375 1400.691406 2026.269531 Z M 1562.007812 2062.839844 C 1559.480469 2062.839844 1556.941406 2062.597656 1554.445312 2062.128906 L 1399.464844 2032.78125 C 1393.761719 2031.699219 1389.566406 2027.289062 1388.785156 2021.550781 C 1387.992188 2015.800781 1390.835938 2010.417969 1396.042969 2007.851562 L 1664.429688 1874.96875 C 1667.003906 1873.699219 1669.984375 1873.289062 1672.789062 1873.828125 L 1836.90625 1904.898438 C 1842.609375 1905.980469 1846.804688 1910.390625 1847.578125 1916.140625 C 1848.371094 1921.890625 1845.523438 1927.257812 1840.320312 1929.839844 L 1580.265625 2058.589844 C 1574.597656 2061.390625 1568.316406 2062.839844 1562.007812 2062.839844" fill="inherit"/></g><g id="change5_26"><path d="M 1568.441406 2149.710938 C 1566.609375 2149.710938 1565.121094 2148.230469 1565.121094 2146.398438 L 1565.121094 2060.699219 C 1565.121094 2058.871094 1566.609375 2057.390625 1568.441406 2057.390625 C 1570.269531 2057.390625 1571.75 2058.871094 1571.75 2060.699219 L 1571.75 2146.398438 C 1571.75 2148.230469 1570.269531 2149.710938 1568.441406 2149.710938" fill="inherit"/></g><g id="change4_11"><path d="M 1542.976562 1993.308594 C 1537.621094 1986.386719 1533.796875 1976.96875 1538.03125 1965.828125 C 1539.292969 1962.496094 1541.28125 1959.507812 1543.601562 1956.808594 L 1545.078125 1954.988281 C 1546.371094 1953.386719 1546.863281 1951.289062 1546.421875 1949.269531 L 1543.507812 1935.847656 C 1542.800781 1932.597656 1544.542969 1929.296875 1547.640625 1928.078125 L 1555.859375 1924.859375 C 1558.832031 1923.675781 1560.597656 1920.597656 1560.074219 1917.4375 L 1558.773438 1909.4375 C 1558.21875 1906.085938 1560.226562 1902.855469 1563.46875 1901.847656 L 1594.179688 1892.355469 C 1595.503906 1891.949219 1596.660156 1891.148438 1597.511719 1890.058594 L 1651.351562 1821.457031 L 1671.90625 1830.367188 L 1640.347656 1916.816406 C 1639.710938 1918.566406 1639.8125 1920.515625 1640.644531 1922.1875 L 1646.355469 1933.585938 C 1647.914062 1936.699219 1646.871094 1940.488281 1643.9375 1942.355469 L 1634.796875 1948.1875 C 1632.046875 1949.9375 1630.941406 1953.386719 1632.128906 1956.40625 L 1635.453125 1964.816406 C 1636.726562 1968.035156 1635.382812 1971.699219 1632.324219 1973.316406 L 1617.925781 1980.96875 C 1616.40625 1981.777344 1615.289062 1983.15625 1614.691406 1984.777344 C 1607.820312 2003.769531 1593.890625 2010.378906 1578.90625 2010.308594 C 1564.78125 2010.238281 1551.613281 2004.46875 1542.976562 1993.308594" fill="#fff"/></g><g id="change5_27"><path d="M 1545.597656 1991.277344 C 1553.277344 2001.199219 1565.421875 2006.929688 1578.925781 2006.988281 C 1578.996094 2006.988281 1579.078125 2006.988281 1579.160156 2006.988281 C 1595.058594 2006.988281 1605.96875 1999.136719 1611.582031 1983.648438 C 1612.464844 1981.199219 1614.164062 1979.207031 1616.375 1978.039062 L 1630.769531 1970.386719 C 1632.332031 1969.558594 1633.011719 1967.6875 1632.375 1966.039062 L 1629.042969 1957.628906 C 1627.261719 1953.136719 1628.941406 1947.988281 1633 1945.386719 L 1642.152344 1939.558594 C 1643.652344 1938.597656 1644.1875 1936.667969 1643.386719 1935.078125 L 1637.691406 1923.667969 C 1636.445312 1921.1875 1636.269531 1918.277344 1637.226562 1915.679688 L 1667.714844 1832.167969 L 1652.375 1825.527344 L 1600.117188 1892.109375 C 1598.839844 1893.726562 1597.125 1894.90625 1595.160156 1895.527344 L 1564.445312 1905.019531 C 1562.800781 1905.527344 1561.761719 1907.199219 1562.039062 1908.898438 L 1563.34375 1916.898438 C 1564.105469 1921.566406 1561.472656 1926.207031 1557.074219 1927.9375 L 1548.867188 1931.167969 C 1547.261719 1931.796875 1546.378906 1933.46875 1546.75 1935.148438 L 1549.667969 1948.570312 C 1550.328125 1951.578125 1549.585938 1954.679688 1547.652344 1957.066406 L 1546.171875 1958.898438 C 1543.789062 1961.6875 1542.152344 1964.308594 1541.132812 1967 C 1538.007812 1975.238281 1539.511719 1983.40625 1545.597656 1991.277344 Z M 1579.148438 2013.617188 C 1579.058594 2013.617188 1578.976562 2013.617188 1578.882812 2013.617188 C 1563.335938 2013.546875 1549.300781 2006.886719 1540.351562 1995.335938 C 1532.855469 1985.65625 1530.976562 1975.046875 1534.925781 1964.648438 C 1536.230469 1961.230469 1538.246094 1957.957031 1541.082031 1954.648438 L 1542.492188 1952.898438 C 1543.160156 1952.078125 1543.417969 1951.019531 1543.179688 1949.976562 L 1540.261719 1936.558594 C 1539.191406 1931.6875 1541.792969 1926.816406 1546.441406 1925 L 1554.644531 1921.765625 C 1556.15625 1921.167969 1557.0625 1919.578125 1556.796875 1917.96875 L 1555.5 1909.96875 C 1554.6875 1905.019531 1557.691406 1900.167969 1562.480469 1898.6875 L 1593.195312 1889.1875 C 1593.875 1888.976562 1594.460938 1888.566406 1594.902344 1888.007812 L 1650.316406 1817.40625 L 1676.097656 1828.566406 L 1643.46875 1917.957031 C 1643.140625 1918.847656 1643.191406 1919.847656 1643.613281 1920.699219 L 1649.332031 1932.109375 C 1651.644531 1936.75 1650.089844 1942.359375 1645.722656 1945.148438 L 1636.578125 1950.988281 C 1635.171875 1951.878906 1634.605469 1953.648438 1635.210938 1955.1875 L 1638.535156 1963.597656 C 1640.4375 1968.386719 1638.441406 1973.828125 1633.886719 1976.246094 L 1619.488281 1983.898438 C 1618.738281 1984.296875 1618.140625 1985.007812 1617.8125 1985.910156 C 1609.535156 2008.777344 1592.269531 2013.617188 1579.148438 2013.617188" fill="inherit"/></g><g id="change2_5"><path d="M 1711.585938 1830.257812 C 1699.339844 1853.277344 1670.765625 1862.019531 1647.742188 1849.769531 C 1624.71875 1837.527344 1615.992188 1808.949219 1628.230469 1785.929688 C 1640.476562 1762.90625 1669.050781 1754.179688 1692.074219 1766.417969 C 1715.097656 1778.660156 1723.824219 1807.25 1711.585938 1830.257812" fill="#5479f7"/></g><g id="change5_28"><path d="M 1669.960938 1764.1875 C 1665.652344 1764.1875 1661.328125 1764.828125 1657.082031 1766.128906 C 1645.871094 1769.546875 1636.667969 1777.136719 1631.164062 1787.488281 C 1625.660156 1797.835938 1624.519531 1809.707031 1627.933594 1820.917969 C 1631.367188 1832.128906 1638.953125 1841.335938 1649.304688 1846.847656 C 1659.660156 1852.347656 1671.527344 1853.488281 1682.734375 1850.066406 C 1693.945312 1846.636719 1703.160156 1839.058594 1708.652344 1828.707031 C 1714.167969 1818.355469 1715.308594 1806.476562 1711.886719 1795.265625 C 1708.453125 1784.058594 1700.875 1774.855469 1690.523438 1769.347656 C 1684.085938 1765.925781 1677.050781 1764.1875 1669.960938 1764.1875 Z M 1669.84375 1858.636719 C 1661.6875 1858.636719 1653.597656 1856.636719 1646.1875 1852.695312 C 1634.273438 1846.367188 1625.535156 1835.765625 1621.59375 1822.855469 C 1617.652344 1809.957031 1618.960938 1796.285156 1625.300781 1784.367188 C 1631.652344 1772.457031 1642.25 1763.726562 1655.148438 1759.777344 C 1668.050781 1755.835938 1681.722656 1757.15625 1693.640625 1763.488281 C 1705.546875 1769.828125 1714.285156 1780.425781 1718.226562 1793.328125 C 1722.175781 1806.238281 1720.855469 1819.90625 1714.515625 1831.816406 C 1708.175781 1843.738281 1697.578125 1852.46875 1684.679688 1856.40625 C 1679.796875 1857.898438 1674.800781 1858.636719 1669.84375 1858.636719" fill="inherit"/></g><g id="change5_29"><path d="M 1597.230469 1989.308594 C 1593.230469 1989.308594 1589.160156 1988.828125 1585.121094 1987.859375 C 1572.679688 1984.871094 1561.878906 1977.410156 1555.480469 1967.371094 C 1554.5 1965.828125 1554.949219 1963.78125 1556.5 1962.789062 C 1558.039062 1961.808594 1560.089844 1962.261719 1561.078125 1963.808594 C 1566.558594 1972.398438 1575.878906 1978.820312 1586.660156 1981.410156 C 1597.121094 1983.910156 1607.691406 1982.679688 1616.410156 1977.921875 C 1618.019531 1977.039062 1620.039062 1977.628906 1620.910156 1979.238281 C 1621.789062 1980.851562 1621.199219 1982.859375 1619.589844 1983.738281 C 1612.828125 1987.429688 1605.160156 1989.308594 1597.230469 1989.308594" fill="inherit"/></g><g id="change5_30"><path d="M 1603.605469 1959.972656 C 1600.792969 1959.972656 1598.058594 1959.703125 1595.519531 1959.09375 C 1585.210938 1956.621094 1575.964844 1951.0625 1569.464844 1943.441406 C 1568.269531 1942.050781 1568.441406 1939.953125 1569.839844 1938.761719 C 1571.226562 1937.582031 1573.324219 1937.742188 1574.511719 1939.132812 C 1580.117188 1945.703125 1588.125 1950.492188 1597.054688 1952.640625 C 1607.753906 1955.203125 1624.070312 1950.070312 1632.269531 1945.613281 C 1633.878906 1944.730469 1635.886719 1945.320312 1636.761719 1946.933594 C 1637.644531 1948.542969 1637.042969 1950.550781 1635.433594 1951.433594 C 1628.320312 1955.3125 1615.289062 1959.972656 1603.605469 1959.972656" fill="inherit"/></g><g id="change5_31"><path d="M 1615.5625 1930.199219 C 1612.339844 1930.199219 1609.148438 1929.820312 1605.957031 1929.050781 C 1597.890625 1927.121094 1592.402344 1924.167969 1587.585938 1919.179688 C 1586.308594 1917.859375 1586.347656 1915.757812 1587.667969 1914.488281 C 1588.988281 1913.21875 1591.082031 1913.25 1592.351562 1914.570312 C 1596.277344 1918.640625 1600.667969 1920.957031 1607.507812 1922.597656 C 1616.800781 1924.828125 1625.875 1923.289062 1636.066406 1917.730469 C 1637.667969 1916.859375 1639.679688 1917.449219 1640.566406 1919.058594 C 1641.441406 1920.660156 1640.839844 1922.679688 1639.238281 1923.558594 C 1631.082031 1928 1623.277344 1930.199219 1615.5625 1930.199219" fill="inherit"/></g><g id="change4_12"><path d="M 1709.957031 1714.539062 C 1696.824219 1707.796875 1677.390625 1699.828125 1643.089844 1705.050781 C 1605.296875 1710.808594 1596.847656 1738.71875 1537.566406 1751.21875 C 1435.652344 1772.699219 1485.835938 1832.371094 1485.835938 1832.371094 L 1565.117188 1796.480469 C 1570.257812 1794.160156 1575.917969 1793.25 1581.535156 1793.867188 C 1598.828125 1795.769531 1640.203125 1798.847656 1677.878906 1790.351562 C 1706.070312 1783.980469 1743.222656 1807.371094 1763.222656 1789.757812 C 1774.84375 1779.519531 1737.960938 1728.910156 1709.957031 1714.539062" fill="#fff"/></g><g id="change5_32"><path d="M 1664.101562 1706.683594 C 1657.914062 1706.683594 1651.121094 1707.179688 1643.585938 1708.332031 C 1626.933594 1710.871094 1616.132812 1717.953125 1603.628906 1726.140625 C 1588.292969 1736.191406 1570.902344 1747.582031 1538.253906 1754.460938 C 1504.296875 1761.621094 1484.175781 1773.632812 1478.453125 1790.160156 C 1472.875 1806.292969 1482.9375 1822.691406 1486.886719 1828.25 L 1563.738281 1793.460938 C 1569.425781 1790.890625 1575.710938 1789.890625 1581.898438 1790.570312 C 1598.050781 1792.351562 1639.65625 1795.570312 1677.148438 1787.109375 C 1689.847656 1784.242188 1703.882812 1787.011719 1717.464844 1789.699219 C 1734.59375 1793.082031 1750.789062 1796.289062 1761.023438 1787.273438 C 1762.207031 1786.222656 1762.207031 1783.980469 1761.988281 1782.269531 C 1759.980469 1766.171875 1731.433594 1729.292969 1708.441406 1717.492188 C 1697.632812 1711.941406 1684.117188 1706.683594 1664.101562 1706.683594 Z M 1485.835938 1835.679688 C 1484.878906 1835.679688 1483.945312 1835.269531 1483.292969 1834.5 C 1482.511719 1833.570312 1464.148438 1811.351562 1472.179688 1788.042969 C 1478.679688 1769.132812 1500.457031 1755.652344 1536.882812 1747.972656 C 1568.320312 1741.351562 1585.144531 1730.320312 1599.992188 1720.589844 C 1612.605469 1712.332031 1624.515625 1704.53125 1642.597656 1701.769531 C 1676.398438 1696.621094 1696.371094 1703.839844 1711.472656 1711.589844 C 1735.144531 1723.742188 1766.09375 1761.609375 1768.578125 1781.453125 C 1769.316406 1787.410156 1767.265625 1790.613281 1765.410156 1792.242188 C 1752.707031 1803.429688 1734.136719 1799.761719 1716.171875 1796.210938 C 1703.277344 1793.660156 1689.945312 1791.019531 1678.601562 1793.582031 C 1640.144531 1802.273438 1597.660156 1798.980469 1581.171875 1797.160156 C 1576.15625 1796.609375 1571.078125 1797.421875 1566.472656 1799.5 L 1487.203125 1835.390625 C 1486.769531 1835.589844 1486.300781 1835.679688 1485.835938 1835.679688" fill="inherit"/></g><g id="change2_6"><path d="M 503.269531 1541.671875 C 491.683594 1511.378906 517.183594 1442.308594 550.050781 1440.558594 C 692.15625 1433 923.742188 1426.121094 1239.710938 1554.890625 C 1251.640625 1559.75 1260.730469 1570.890625 1264.550781 1585.261719 L 1266.800781 1593.699219 C 1270.398438 1607.210938 1267.980469 1628.398438 1261.699219 1645.730469 C 1255.5 1662.820312 1241.121094 1676.121094 1223.019531 1679.640625 C 1218.550781 1680.511719 1213.851562 1680.820312 1209.25 1680.070312 C 1138.289062 1668.640625 921.917969 1620.261719 765.492188 1721.660156 C 628.160156 1810.691406 539.644531 1636.75 503.269531 1541.671875" fill="#5479f7"/></g><g id="change2_7"><path d="M 1528.78125 1755.878906 C 1517.171875 1745.019531 1500.160156 1741.921875 1485.300781 1747.789062 C 1413.511719 1776.171875 1179.371094 1864.03125 1136.949219 1820.5 C 1112.730469 1795.648438 1055.898438 1720.941406 994.777344 1653.601562 C 955.214844 1610.011719 913.855469 1569.5 878.382812 1547.601562 C 772.699219 1482.351562 497.433594 1513.761719 497.433594 1513.761719 C 497.433594 1513.761719 753.449219 2023.441406 970.507812 2073.828125 C 1007.851562 2082.5 1040.171875 2087.210938 1068.738281 2088.839844 C 1176.359375 2094.988281 1230.78125 2057.570312 1300.019531 2024.511719 C 1403.410156 1975.128906 1560.621094 1856.539062 1558.871094 1816.980469 C 1557.628906 1789.050781 1542.5 1768.710938 1528.78125 1755.878906" fill="#5479f7"/></g><g id="change2_8"><path d="M 798.363281 2122.679688 C 840.632812 2134.300781 979.882812 2162.128906 1154.519531 2166.691406 C 1008.828125 2087.480469 969.566406 1940.679688 969.566406 1940.679688 C 1092.460938 1925.941406 968.773438 1693.78125 920.722656 1607.871094 C 894.089844 1560.25 821.429688 1520.890625 772.203125 1496.191406 C 665.058594 1442.410156 480.644531 1405.71875 409.726562 1481.03125 C 378.703125 1513.980469 372.773438 1543.558594 372.734375 1595.308594 C 372.726562 1604.738281 373.730469 1614.171875 375.625 1623.421875 C 453.828125 2005.191406 649.558594 2081.789062 798.363281 2122.679688" fill="#5479f7"/></g><g id="change1_31"><path d="M 1030.691406 1692.671875 C 1029.761719 1692.671875 1028.828125 1692.28125 1028.171875 1691.519531 C 978.09375 1633.480469 926.292969 1588.371094 874.207031 1557.449219 C 845.167969 1540.210938 808.800781 1526.53125 771.808594 1518.941406 C 770.011719 1518.570312 768.859375 1516.820312 769.226562 1515.019531 C 769.597656 1513.230469 771.355469 1512.070312 773.140625 1512.441406 C 810.839844 1520.179688 847.933594 1534.140625 877.59375 1551.738281 C 930.296875 1583.03125 982.644531 1628.601562 1033.199219 1687.191406 C 1034.390625 1688.578125 1034.238281 1690.671875 1032.851562 1691.871094 C 1032.21875 1692.410156 1031.449219 1692.671875 1030.691406 1692.671875" fill="#caddff"/></g><g id="change1_32"><path d="M 1116.839844 2102.179688 C 1116.761719 2102.179688 1116.691406 2102.171875 1116.621094 2102.171875 C 1082.621094 2099.921875 1053.519531 2095.089844 1019.289062 2086.019531 C 923.863281 2060.71875 772.644531 1902.699219 696.613281 1776.710938 C 695.671875 1775.140625 696.171875 1773.101562 697.738281 1772.148438 C 699.308594 1771.210938 701.347656 1771.710938 702.292969 1773.28125 C 777.671875 1898.191406 927.089844 2054.710938 1020.988281 2079.609375 C 1054.78125 2088.570312 1083.511719 2093.328125 1117.050781 2095.550781 C 1118.878906 2095.671875 1120.269531 2097.25 1120.148438 2099.078125 C 1120.03125 2100.828125 1118.570312 2102.179688 1116.839844 2102.179688" fill="#caddff"/></g><g id="change4_13"><path d="M 1408.160156 1683.921875 C 1415.03125 1684.53125 1423.230469 1685.03125 1435.921875 1681.769531 L 1534.210938 1654.660156 C 1542.75 1652.460938 1547.769531 1643.71875 1545.308594 1635.351562 C 1545.308594 1635.351562 1541.828125 1621.78125 1526.640625 1624.640625 C 1520.578125 1625.78125 1486.148438 1636.269531 1482.078125 1636.28125 C 1475.53125 1636.308594 1472.230469 1631.660156 1474.269531 1625.5 C 1475.308594 1622.351562 1476.148438 1619.449219 1476.828125 1616.929688 C 1478.449219 1610.898438 1483.25 1606.21875 1489.339844 1604.578125 C 1501.699219 1601.261719 1538.679688 1593.660156 1543.898438 1591.238281 C 1551.648438 1587.640625 1563.128906 1583.578125 1566.859375 1575.558594 L 1567.808594 1573.460938 C 1571.589844 1565.101562 1564.910156 1555.808594 1555.691406 1556.589844 L 1466.25 1564.871094 C 1454.789062 1565.839844 1444.011719 1570.710938 1435.738281 1578.640625 L 1393.011719 1619.640625 C 1383.378906 1628.890625 1369.230469 1631.820312 1356.660156 1627.179688 L 1247.988281 1580.070312 C 1215.769531 1567.980469 1197.679688 1628.769531 1197.679688 1628.769531 C 1194.730469 1647.351562 1208.230469 1664.800781 1226.269531 1667.390625 L 1408.160156 1683.921875" fill="#fff"/></g><g id="change5_33"><path d="M 1408.449219 1680.621094 C 1415.78125 1681.261719 1423.320312 1681.578125 1435.089844 1678.558594 L 1533.328125 1651.460938 C 1536.660156 1650.601562 1539.378906 1648.53125 1541.039062 1645.609375 C 1542.660156 1642.75 1543.050781 1639.429688 1542.121094 1636.289062 C 1541.808594 1635.121094 1538.929688 1625.699219 1527.25 1627.898438 C 1524.890625 1628.339844 1517.449219 1630.429688 1509.578125 1632.648438 C 1492.199219 1637.539062 1484.539062 1639.589844 1482.101562 1639.601562 C 1482.070312 1639.601562 1482.050781 1639.601562 1482.03125 1639.601562 C 1477.820312 1639.601562 1474.359375 1638.03125 1472.289062 1635.179688 C 1470.199219 1632.300781 1469.78125 1628.488281 1471.121094 1624.460938 C 1472.039062 1621.671875 1472.878906 1618.851562 1473.628906 1616.070312 C 1475.539062 1608.960938 1481.230469 1603.328125 1488.480469 1601.378906 C 1493.390625 1600.058594 1501.980469 1598.109375 1511.078125 1596.039062 C 1523.808594 1593.148438 1539.648438 1589.558594 1542.5 1588.230469 C 1543.601562 1587.71875 1544.769531 1587.199219 1545.980469 1586.660156 C 1552.75 1583.671875 1561.171875 1579.941406 1563.851562 1574.160156 L 1564.789062 1572.089844 C 1566.058594 1569.28125 1565.75 1566.101562 1563.96875 1563.589844 C 1562.148438 1561 1559.171875 1559.628906 1555.96875 1559.898438 L 1466.558594 1568.171875 C 1455.851562 1569.078125 1445.738281 1573.648438 1438.039062 1581.03125 L 1395.308594 1622.039062 C 1384.808594 1632.101562 1369.191406 1635.339844 1355.511719 1630.289062 L 1246.671875 1583.109375 C 1241.289062 1581.089844 1236.050781 1581.351562 1230.808594 1583.949219 C 1212.609375 1593 1201.839844 1626.570312 1200.929688 1629.511719 C 1199.738281 1637.359375 1201.75 1645.289062 1206.589844 1651.871094 C 1211.488281 1658.511719 1218.839844 1662.980469 1226.738281 1664.109375 L 1408.460938 1680.621094 Z M 1416.738281 1687.679688 C 1413.550781 1687.679688 1410.648438 1687.46875 1407.871094 1687.230469 C 1407.859375 1687.230469 1407.859375 1687.230469 1407.859375 1687.230469 L 1225.96875 1670.699219 C 1216.148438 1669.289062 1207.199219 1663.871094 1201.25 1655.800781 C 1195.300781 1647.730469 1192.871094 1637.941406 1194.410156 1628.25 C 1194.429688 1628.101562 1194.460938 1627.960938 1194.511719 1627.820312 C 1194.980469 1626.230469 1206.359375 1588.699219 1227.859375 1578.011719 C 1234.738281 1574.589844 1241.898438 1574.238281 1249.160156 1576.960938 L 1357.980469 1624.140625 C 1369.128906 1628.25 1382.039062 1625.570312 1390.710938 1617.25 L 1433.449219 1576.238281 C 1442.230469 1567.808594 1453.789062 1562.601562 1465.96875 1561.558594 L 1555.378906 1553.289062 C 1560.96875 1552.820312 1566.191406 1555.230469 1569.390625 1559.761719 C 1572.539062 1564.21875 1573.078125 1569.851562 1570.828125 1574.828125 L 1569.878906 1576.921875 C 1566.128906 1584.988281 1556.449219 1589.28125 1548.671875 1592.730469 C 1547.488281 1593.25 1546.359375 1593.75 1545.289062 1594.25 C 1542.039062 1595.761719 1530.21875 1598.5 1512.550781 1602.511719 C 1503.511719 1604.558594 1494.980469 1606.5 1490.199219 1607.78125 C 1485.230469 1609.121094 1481.328125 1612.960938 1480.03125 1617.800781 C 1479.25 1620.691406 1478.378906 1623.628906 1477.421875 1626.539062 C 1476.769531 1628.488281 1476.859375 1630.179688 1477.648438 1631.28125 C 1478.441406 1632.371094 1480 1632.96875 1482.03125 1632.96875 C 1482.050781 1632.96875 1482.058594 1632.96875 1482.070312 1632.96875 C 1484.269531 1632.890625 1498.421875 1628.898438 1507.78125 1626.261719 C 1516.148438 1623.910156 1523.371094 1621.878906 1526.03125 1621.378906 C 1540.449219 1618.660156 1547.050781 1628.789062 1548.519531 1634.53125 C 1549.921875 1639.300781 1549.328125 1644.441406 1546.808594 1648.878906 C 1544.25 1653.378906 1540.070312 1656.570312 1535.039062 1657.871094 L 1436.800781 1684.96875 C 1428.660156 1687.058594 1422.261719 1687.679688 1416.738281 1687.679688" fill="inherit"/></g><g id="change4_14"><path d="M 1292.679688 1672.289062 C 1278.589844 1646.730469 1297.101562 1616.820312 1307.148438 1603.558594 C 1309.929688 1599.878906 1308.648438 1594.628906 1304.46875 1592.648438 L 1283.160156 1582.550781 C 1280.25 1581.160156 1276.769531 1581.839844 1274.578125 1584.191406 C 1261.71875 1597.941406 1222.738281 1645.128906 1258.199219 1678.78125 C 1259.371094 1679.878906 1260.921875 1680.539062 1262.539062 1680.699219 L 1285.488281 1682.921875 C 1291.320312 1683.488281 1295.480469 1677.378906 1292.679688 1672.289062" fill="#fff"/></g><g id="change5_34"><path d="M 1279.988281 1585.148438 C 1278.878906 1585.148438 1277.800781 1585.601562 1277 1586.449219 C 1264.71875 1599.578125 1227.261719 1644.851562 1260.488281 1676.371094 C 1261.089844 1676.941406 1261.929688 1677.308594 1262.859375 1677.398438 L 1285.808594 1679.621094 C 1287.359375 1679.769531 1288.769531 1679.101562 1289.609375 1677.820312 C 1289.988281 1677.238281 1290.769531 1675.699219 1289.769531 1673.898438 C 1274.539062 1646.261719 1295 1614.101562 1304.511719 1601.550781 C 1305.230469 1600.601562 1305.480469 1599.398438 1305.199219 1598.261719 C 1304.910156 1597.101562 1304.148438 1596.171875 1303.050781 1595.648438 L 1281.738281 1585.539062 C 1281.179688 1585.28125 1280.578125 1585.148438 1279.988281 1585.148438 Z M 1286.21875 1686.28125 C 1285.871094 1686.28125 1285.519531 1686.261719 1285.171875 1686.21875 L 1262.21875 1684 C 1259.828125 1683.769531 1257.589844 1682.769531 1255.921875 1681.179688 C 1218.261719 1645.460938 1258.820312 1596.179688 1272.148438 1581.921875 C 1275.359375 1578.488281 1280.359375 1577.539062 1284.578125 1579.550781 L 1305.890625 1589.648438 C 1308.789062 1591.03125 1310.878906 1593.589844 1311.640625 1596.679688 C 1312.398438 1599.769531 1311.71875 1603.011719 1309.789062 1605.558594 C 1301.070312 1617.070312 1282.230469 1646.460938 1295.578125 1670.691406 C 1297.480469 1674.140625 1297.320312 1678.160156 1295.148438 1681.46875 C 1293.160156 1684.488281 1289.808594 1686.28125 1286.21875 1686.28125" fill="inherit"/></g><g id="change1_33"><path d="M 1302.660156 1621.21875 C 1302.660156 1636.480469 1290.089844 1648.839844 1274.578125 1648.839844 C 1259.070312 1648.839844 1246.5 1636.480469 1246.5 1621.21875 C 1246.5 1605.96875 1259.070312 1593.609375 1274.578125 1593.609375 C 1290.089844 1593.609375 1302.660156 1605.96875 1302.660156 1621.21875" fill="#caddff"/></g><g id="change5_35"><path d="M 1274.578125 1596.921875 C 1260.921875 1596.921875 1249.808594 1607.828125 1249.808594 1621.21875 C 1249.808594 1634.621094 1260.921875 1645.519531 1274.578125 1645.519531 C 1288.238281 1645.519531 1299.351562 1634.621094 1299.351562 1621.21875 C 1299.351562 1607.828125 1288.238281 1596.921875 1274.578125 1596.921875 Z M 1274.578125 1652.160156 C 1257.261719 1652.160156 1243.179688 1638.28125 1243.179688 1621.21875 C 1243.179688 1604.171875 1257.261719 1590.289062 1274.578125 1590.289062 C 1291.890625 1590.289062 1305.980469 1604.171875 1305.980469 1621.21875 C 1305.980469 1638.28125 1291.890625 1652.160156 1274.578125 1652.160156" fill="inherit"/></g><g id="change4_15"><path d="M 534.957031 1519.480469 L 522.308594 1278.898438 L 685.46875 1373.28125 L 695.335938 1506.03125 C 696.785156 1535.679688 672.835938 1554.320312 672.835938 1554.320312 C 643.367188 1579.839844 598.929688 1579.410156 564.945312 1560.089844 L 557.074219 1555.621094 C 543.90625 1548.128906 535.554688 1534.480469 534.957031 1519.480469" fill="#fff"/></g><g id="change5_36"><path d="M 525.941406 1284.828125 L 538.269531 1519.308594 C 538.269531 1519.320312 538.273438 1519.328125 538.273438 1519.351562 C 538.824219 1533.289062 546.46875 1545.769531 558.710938 1552.738281 L 566.582031 1557.210938 C 601.367188 1576.980469 644.164062 1574.761719 670.664062 1551.808594 C 671.019531 1551.53125 693.367188 1533.699219 692.023438 1506.191406 L 682.289062 1375.28125 Z M 617.027344 1577.550781 C 599.097656 1577.550781 580.46875 1572.730469 563.304688 1562.980469 L 555.433594 1558.5 C 541.1875 1550.410156 532.296875 1535.878906 531.644531 1519.628906 L 518.996094 1279.070312 C 518.933594 1277.859375 519.539062 1276.710938 520.578125 1276.070312 C 521.613281 1275.441406 522.917969 1275.421875 523.96875 1276.03125 L 687.128906 1370.410156 C 688.078125 1370.960938 688.691406 1371.941406 688.773438 1373.039062 L 698.644531 1505.78125 C 700.164062 1536.890625 675.90625 1556.128906 674.871094 1556.941406 C 659.101562 1570.601562 638.566406 1577.539062 617.027344 1577.550781" fill="inherit"/></g><g id="change5_37"><path d="M 758.1875 1062.851562 C 717.679688 1054.558594 763.007812 1103.328125 618.261719 1037.960938 C 560.621094 1011.929688 580.992188 1085.300781 566.019531 1078.589844 C 510.734375 1053.789062 495.578125 1047.589844 466.363281 1050.738281 C 447.019531 1052.820312 402.269531 1083.25 404.835938 1108.851562 C 413.207031 1192.390625 452.773438 1176.398438 467.273438 1250.320312 C 477.460938 1302.230469 489.375 1319.320312 508.480469 1329.46875 C 527.800781 1339.730469 546.769531 1315.089844 568.722656 1324.730469 C 597.128906 1337.210938 583.9375 1386.660156 609.707031 1411.738281 C 625.949219 1427.550781 667.332031 1439.839844 739.808594 1417.378906 C 751.554688 1413.738281 758.984375 1402.320312 757.429688 1390.238281 C 755.441406 1374.761719 752.820312 1355.21875 748.734375 1336.75 C 729.246094 1248.730469 701.757812 1225.449219 715.871094 1205.449219 C 737.496094 1174.800781 798.511719 1203.109375 813.046875 1177.460938 C 828.140625 1150.828125 813.652344 1074.191406 758.1875 1062.851562" fill="inherit"/></g><g id="change4_16"><path d="M 594.664062 1185.621094 L 603.105469 1208.421875 C 607.164062 1219.390625 610.484375 1230.601562 612.972656 1242.011719 C 617.605469 1263.25 627.039062 1299.511719 632.097656 1319.949219 C 648.328125 1385.550781 735.8125 1328.871094 735.8125 1328.871094 L 743.699219 1312.609375 L 754.734375 1309.96875 C 756.742188 1309.480469 758.675781 1308.628906 760.210938 1307.269531 C 764.417969 1303.53125 765.347656 1297.769531 763.046875 1293.109375 C 752.085938 1270.910156 730.902344 1224.300781 722.910156 1180.941406 C 721 1170.578125 712.722656 1162.449219 702.214844 1160.441406 C 678.734375 1155.949219 636.203125 1154.269531 594.664062 1185.621094" fill="#fff"/></g><g id="change5_38"><path d="M 598.640625 1186.808594 L 606.214844 1207.269531 C 610.375 1218.511719 613.738281 1229.960938 616.214844 1241.300781 C 619.566406 1256.671875 625.550781 1280.371094 630.359375 1299.410156 C 632.214844 1306.761719 633.929688 1313.550781 635.316406 1319.148438 C 638.675781 1332.730469 645.539062 1341.660156 655.71875 1345.691406 C 683.167969 1356.539062 726.925781 1330.480469 733.242188 1326.558594 L 740.714844 1311.171875 C 741.148438 1310.269531 741.957031 1309.621094 742.925781 1309.390625 L 753.960938 1306.738281 C 755.644531 1306.339844 757.007812 1305.679688 758.011719 1304.789062 C 760.964844 1302.171875 761.796875 1298.058594 760.074219 1294.578125 C 748.398438 1270.941406 727.625 1224.808594 719.648438 1181.539062 C 718.003906 1172.621094 710.746094 1165.449219 701.589844 1163.699219 C 680.378906 1159.640625 639.070312 1157.359375 598.640625 1186.808594 Z M 670.890625 1354.929688 C 664.742188 1354.929688 658.769531 1354.03125 653.277344 1351.851562 C 640.992188 1346.988281 632.78125 1336.53125 628.878906 1320.75 C 627.492188 1315.148438 625.78125 1308.371094 623.929688 1301.039062 C 619.109375 1281.949219 613.109375 1258.191406 609.734375 1242.71875 C 607.324219 1231.671875 604.046875 1220.519531 599.996094 1209.570312 L 591.554688 1186.78125 C 591.046875 1185.398438 591.496094 1183.859375 592.667969 1182.980469 C 635.769531 1150.441406 680.1875 1152.851562 702.839844 1157.179688 C 714.660156 1159.441406 724.035156 1168.75 726.171875 1180.328125 C 734.003906 1222.820312 754.5 1268.308594 766.023438 1291.648438 C 769.082031 1297.839844 767.632812 1305.121094 762.414062 1309.75 C 760.585938 1311.371094 758.265625 1312.53125 755.507812 1313.191406 L 745.996094 1315.46875 L 738.796875 1330.308594 C 738.53125 1330.859375 738.125 1331.320312 737.613281 1331.648438 C 735.871094 1332.78125 701.265625 1354.929688 670.890625 1354.929688" fill="inherit"/></g><g id="change4_17"><path d="M 600.257812 1262.800781 C 600.257812 1262.800781 579.746094 1207.171875 556.121094 1221.648438 C 532.5 1236.121094 556.636719 1296.808594 600.257812 1262.800781" fill="#fff"/></g><g id="change5_39"><path d="M 712.183594 1222.050781 C 711.023438 1222.050781 709.875 1222.191406 708.765625 1222.480469 C 706.09375 1223.171875 703.882812 1224.648438 702.851562 1226.449219 C 691.613281 1246.050781 692.136719 1263.480469 696.375 1273.261719 C 698.117188 1277.289062 700.28125 1279.421875 701.652344 1279.738281 C 706.921875 1280.980469 711.210938 1280.339844 714.765625 1277.769531 C 721.125 1273.171875 725.066406 1262.550781 726.476562 1246.191406 C 727.960938 1228.949219 722.519531 1225.648438 720.730469 1224.570312 C 717.980469 1222.898438 715.035156 1222.050781 712.183594 1222.050781 Z M 706.542969 1286.988281 C 704.496094 1286.988281 702.355469 1286.71875 700.121094 1286.191406 C 696.316406 1285.289062 692.734375 1281.539062 690.285156 1275.898438 C 685.410156 1264.640625 684.636719 1244.878906 697.09375 1223.148438 C 699.023438 1219.789062 702.671875 1217.199219 707.105469 1216.050781 C 712.691406 1214.609375 718.75 1215.621094 724.167969 1218.898438 C 731.40625 1223.28125 734.324219 1232.398438 733.085938 1246.761719 C 731.5 1265.121094 726.644531 1277.371094 718.652344 1283.148438 C 715.117188 1285.699219 711.0625 1286.988281 706.542969 1286.988281" fill="inherit"/></g><g id="change5_40"><path d="M 711.324219 1221.75 C 711.300781 1221.75 711.273438 1221.75 711.25 1221.738281 L 581.210938 1219.011719 C 579.382812 1218.980469 577.929688 1217.460938 577.964844 1215.628906 C 578.003906 1213.800781 579.53125 1212.25 581.351562 1212.378906 L 711.390625 1215.109375 C 713.222656 1215.148438 714.675781 1216.671875 714.636719 1218.5 C 714.597656 1220.308594 713.121094 1221.75 711.324219 1221.75" fill="inherit"/></g><g id="change5_41"><path d="M 761.007812 1281.839844 C 759.574219 1281.839844 758.25 1280.898438 757.824219 1279.449219 C 757.3125 1277.691406 758.320312 1275.851562 760.082031 1275.339844 C 763.554688 1273.578125 776.414062 1249.710938 768.449219 1230.269531 C 767.207031 1227.238281 765.269531 1225.300781 762.523438 1224.351562 C 755.167969 1221.808594 743.699219 1226.839844 739.90625 1228.988281 C 738.316406 1229.898438 736.289062 1229.339844 735.382812 1227.75 C 734.480469 1226.148438 735.039062 1224.128906 736.632812 1223.21875 C 737.296875 1222.851562 753.019531 1214.050781 764.691406 1218.089844 C 769.277344 1219.671875 772.609375 1222.929688 774.585938 1227.75 C 781.980469 1245.800781 774.089844 1264.78125 771.492188 1270.171875 C 769.660156 1273.96875 765.984375 1280.53125 761.9375 1281.710938 C 761.628906 1281.800781 761.316406 1281.839844 761.007812 1281.839844" fill="inherit"/></g><g id="change5_42"><path d="M 1813.324219 475.097656 C 1812.59375 475.097656 1811.878906 474.871094 1811.277344 474.394531 C 1809.832031 473.265625 1809.582031 471.179688 1810.710938 469.734375 L 1822.175781 455.082031 C 1823.304688 453.640625 1825.402344 453.386719 1826.847656 454.519531 C 1828.277344 455.648438 1828.527344 457.734375 1827.398438 459.175781 L 1815.933594 473.828125 C 1815.28125 474.671875 1814.300781 475.097656 1813.324219 475.097656" fill="inherit"/></g><g id="change5_43"><path d="M 1853.46875 423.820312 C 1852.746094 423.820312 1852.039062 423.589844 1851.433594 423.113281 C 1849.980469 421.980469 1849.734375 419.894531 1850.867188 418.453125 L 1862.335938 403.808594 C 1863.46875 402.367188 1865.554688 402.109375 1866.996094 403.242188 C 1868.4375 404.359375 1868.679688 406.445312 1867.5625 407.898438 L 1856.082031 422.546875 C 1855.4375 423.382812 1854.457031 423.820312 1853.46875 423.820312" fill="inherit"/></g><g id="change5_44"><path d="M 1872.253906 467.753906 C 1871.550781 467.753906 1870.832031 467.527344 1870.242188 467.0625 L 1855.519531 455.664062 C 1854.0625 454.542969 1853.796875 452.453125 1854.917969 451.007812 C 1856.039062 449.5625 1858.113281 449.296875 1859.574219 450.417969 L 1874.292969 461.800781 C 1875.738281 462.933594 1876.003906 465.011719 1874.882812 466.457031 C 1874.230469 467.300781 1873.246094 467.753906 1872.253906 467.753906" fill="inherit"/></g><g id="change5_45"><path d="M 1820.734375 427.898438 C 1820.027344 427.898438 1819.308594 427.667969 1818.707031 427.207031 L 1803.984375 415.816406 C 1802.535156 414.6875 1802.265625 412.613281 1803.378906 411.164062 C 1804.507812 409.710938 1806.601562 409.445312 1808.050781 410.558594 L 1822.761719 421.960938 C 1824.222656 423.078125 1824.480469 425.15625 1823.351562 426.605469 C 1822.707031 427.449219 1821.722656 427.898438 1820.734375 427.898438" fill="inherit"/></g><g id="change5_46"><path d="M 1972.839844 452.808594 C 1960.78125 452.808594 1950.976562 462.609375 1950.976562 474.65625 C 1950.976562 486.714844 1960.78125 496.519531 1972.839844 496.519531 C 1984.898438 496.519531 1994.6875 486.714844 1994.6875 474.65625 C 1994.6875 462.609375 1984.898438 452.808594 1972.839844 452.808594 Z M 1972.839844 503.144531 C 1957.125 503.144531 1944.335938 490.367188 1944.335938 474.65625 C 1944.335938 458.945312 1957.125 446.167969 1972.839844 446.167969 C 1988.539062 446.167969 2001.328125 458.945312 2001.328125 474.65625 C 2001.328125 490.367188 1988.539062 503.144531 1972.839844 503.144531" fill="inherit"/></g><g id="change5_47"><path d="M 2059.011719 536.816406 C 2051.164062 536.816406 2044.796875 543.195312 2044.796875 551.015625 C 2044.796875 558.851562 2051.164062 565.230469 2059.011719 565.230469 C 2066.832031 565.230469 2073.210938 558.851562 2073.210938 551.015625 C 2073.210938 543.195312 2066.832031 536.816406 2059.011719 536.816406 Z M 2059.011719 571.867188 C 2047.515625 571.867188 2038.175781 562.515625 2038.175781 551.015625 C 2038.175781 539.535156 2047.515625 530.179688 2059.011719 530.179688 C 2070.496094 530.179688 2079.847656 539.535156 2079.847656 551.015625 C 2079.847656 562.515625 2070.496094 571.867188 2059.011719 571.867188" fill="inherit"/></g><g id="change5_48"><path d="M 1323.378906 1556.308594 C 1322.410156 1556.308594 1321.460938 1555.890625 1320.800781 1555.078125 C 1319.648438 1553.660156 1319.859375 1551.570312 1321.289062 1550.421875 L 1389.601562 1494.929688 C 1391.019531 1493.769531 1393.109375 1493.988281 1394.261719 1495.410156 C 1395.421875 1496.828125 1395.199219 1498.921875 1393.78125 1500.078125 L 1325.46875 1555.558594 C 1324.851562 1556.058594 1324.109375 1556.308594 1323.378906 1556.308594" fill="inherit"/></g><g id="change5_49"><path d="M 1258.160156 1549.878906 C 1257.199219 1549.878906 1256.25 1549.46875 1255.601562 1548.671875 L 1186.359375 1464.710938 C 1185.191406 1463.300781 1185.390625 1461.210938 1186.808594 1460.039062 C 1188.21875 1458.871094 1190.308594 1459.078125 1191.480469 1460.488281 L 1260.710938 1544.449219 C 1261.878906 1545.859375 1261.679688 1547.949219 1260.261719 1549.121094 C 1259.648438 1549.628906 1258.898438 1549.878906 1258.160156 1549.878906" fill="inherit"/></g><g id="change5_50"><path d="M 1292.671875 1533.871094 C 1292.550781 1533.871094 1292.441406 1533.871094 1292.328125 1533.859375 C 1290.511719 1533.671875 1289.179688 1532.050781 1289.359375 1530.230469 L 1301.101562 1413.328125 C 1301.28125 1411.5 1302.929688 1410.191406 1304.730469 1410.359375 C 1306.550781 1410.539062 1307.878906 1412.171875 1307.699219 1413.988281 L 1295.960938 1530.890625 C 1295.789062 1532.601562 1294.351562 1533.871094 1292.671875 1533.871094" fill="inherit"/></g><g id="change5_51"><path d="M 1584.78125 1714.160156 C 1584.578125 1714.160156 1584.371094 1714.140625 1584.171875 1714.109375 L 1481.230469 1695.128906 C 1479.421875 1694.800781 1478.230469 1693.070312 1478.558594 1691.261719 C 1478.898438 1689.460938 1480.640625 1688.269531 1482.429688 1688.601562 L 1585.371094 1707.578125 C 1587.171875 1707.910156 1588.359375 1709.640625 1588.03125 1711.449219 C 1587.738281 1713.039062 1586.339844 1714.160156 1584.78125 1714.160156" fill="inherit"/></g></g></svg>