<?xml version="1.0" encoding="UTF-8"?><svg xmlns="http://www.w3.org/2000/svg" xmlns:xlink="http://www.w3.org/1999/xlink" height="26.0" preserveAspectRatio="xMidYMid meet" version="1.0" viewBox="8.8 17.0 102.4 26.0" width="102.4" zoomAndPan="magnify">
 <g transform="matrix(.42453 0 0 .42453 8.7789 17.021)">
  <g id="change1_1"><path d="m26.896 43.398v8.704h-26.896v-43.059h9.433v34.355zm4.166-20.498h9.066v29.2h-9.066zm4.534-14.505a5.26 5.26 0 0 1 5.259 5.257c0 2.906-2.356 5.255-5.26 5.255s-5.256-2.35-5.256-5.255a5.26 5.26 0 0 1 5.256 -5.257m61.76 14.502h11.1l-11.9 13.5 11.65 15.703h-11.385l-9.62-14.425h-0.117v14.425h-9.063v-43.06h9.063v25.735zm-52.212 0.017h8.702v4h0.12c1.208-2.297 4.17-4.713 8.58-4.713 9.188 0 10.88 6.043 10.88 13.898v16h-9.065v-14.196c0-3.386-0.062-7.735-4.716-7.735-4.713 0-5.436 3.687-5.436 7.493v14.43h-9.066v-29.177zm82.407 11.194c0.06-3.022-2.298-5.56-5.564-5.56-3.987 0-6.164 2.72-6.403 5.56zm7.674 12.93c-2.9 3.687-7.673 5.804-12.4 5.804-9.064 0-16.317-6.047-16.317-15.414s7.253-15.4 16.317-15.4c8.468 0 13.78 6.043 13.78 15.4v2.84h-21.032c0.72 3.445 3.323 5.68 6.83 5.68 2.962 0 4.955-1.5 6.467-3.567zm20.27-17.072c-4.53 0-7.248 3.024-7.248 7.432 0 4.416 2.72 7.434 7.248 7.434 4.536 0 7.257-3.018 7.257-7.434-0.001-4.408-2.72-7.432-7.257-7.432m15.6 22.12h-8.342v-3.87h-0.118c-1.395 2.115-4.897 4.594-9.008 4.594-8.706 0-14.446-6.283-14.446-15.17 0-8.16 5.076-15.654 13.416-15.654 3.75 0 7.255 1.027 9.3 3.867h0.118v-16.813h9.07z" fill="inherit"/></g>
  <g id="change2_1"><path d="m236.78 0h-52.107c-2.5 0-4.513 1.974-4.513 4.406v52.327c0 2.435 2.023 4.41 4.513 4.41h52.107c2.494 0 4.526-1.976 4.526-4.41v-52.327c0-2.432-2.03-4.406-4.53-4.406z" fill="#0177b5"/></g>
  <g id="change3_1"><path d="m189.23 22.923h9.07v29.18h-9.07zm4.537-14.505a5.26 5.26 0 0 1 5.255 5.257 5.26 5.26 0 0 1 -5.255 5.259 5.26 5.26 0 0 1 -5.26 -5.259 5.26 5.26 0 0 1 5.26 -5.257m10.22 14.505h8.698v3.977h0.12c1.2-2.294 4.17-4.713 8.58-4.713 9.184 0 10.88 6.044 10.88 13.9v16.005h-9.07v-14.2c0-3.384-0.062-7.737-4.713-7.737-4.72 0-5.443 3.686-5.443 7.492v14.435h-9.06v-29.18z" fill="#fff"/></g>
 </g>
</svg>